M48
;Layer_Color=9474304
;FILE_FORMAT=2:5
INCH,LZ
;TYPE=PLATED
T4F00S00C0.03346
;TYPE=NON_PLATED
%
G90
G05
T04
G00X0111158Y0005401
M15
G01Y0005599
M16
G00X0121Y0005401
M15
G01Y0005599
M16
G00X0130843Y0005401
M15
G01Y0005599
M16
G00X0140685Y0005401
M15
G01Y0005599
M16
G00X0166099Y0015815
M15
G01X0165901
M16
G00X0166099Y0025657
M15
G01X0165901
M16
G00X0166099Y00355
M15
G01X0165901
M16
G00X0166099Y0045342
M15
G01X0165901
M16
G00X0166099Y0072658
M15
G01X0165901
M16
G00X0166099Y00825
M15
G01X0165901
M16
G00X0166099Y0092343
M15
G01X0165901
M16
G00X0166099Y0102185
M15
G01X0165901
M16
M17
M30
