G04*
G04 #@! TF.GenerationSoftware,Altium Limited,Altium Designer,21.2.2 (38)*
G04*
G04 Layer_Physical_Order=2*
G04 Layer_Color=16711680*
%FSLAX25Y25*%
%MOIN*%
G70*
G04*
G04 #@! TF.SameCoordinates,90EED6A2-F189-4C83-9C70-3762F5BC3ACE*
G04*
G04*
G04 #@! TF.FilePolarity,Positive*
G04*
G01*
G75*
%ADD10C,0.01000*%
%ADD19C,0.00800*%
%ADD59C,0.02000*%
%ADD60C,0.03000*%
%ADD61C,0.01500*%
%ADD62C,0.04000*%
%ADD63R,0.05906X0.05906*%
%ADD64C,0.05906*%
%ADD65R,0.05906X0.05906*%
%ADD66C,0.02165*%
%ADD67C,0.02559*%
%ADD68C,0.02000*%
%ADD69C,0.03000*%
%ADD70C,0.04000*%
%ADD71R,0.07874X0.01575*%
%ADD72R,0.03937X0.06299*%
%ADD73R,0.05512X0.07874*%
G36*
X154573Y70909D02*
Y40500D01*
X154573Y40500D01*
X154681Y39954D01*
X154991Y39491D01*
X159991Y34491D01*
X159991Y34491D01*
X160454Y34181D01*
X161000Y34073D01*
X161000Y34073D01*
X162290D01*
X162316Y33974D01*
X162837Y33073D01*
X163573Y32337D01*
X164474Y31816D01*
X165480Y31547D01*
X166520D01*
X167526Y31816D01*
X168427Y32337D01*
X169163Y33073D01*
X169684Y33974D01*
X169953Y34980D01*
Y36020D01*
X169684Y37026D01*
X169595Y37179D01*
X169995Y37486D01*
X170573Y36909D01*
Y32248D01*
X167614Y29290D01*
X167526Y29341D01*
X166520Y29610D01*
X165480D01*
X164474Y29341D01*
X163573Y28820D01*
X162837Y28084D01*
X162316Y27183D01*
X162047Y26177D01*
Y25137D01*
X162316Y24131D01*
X162837Y23230D01*
X163573Y22494D01*
X164474Y21973D01*
X165480Y21704D01*
X166520D01*
X167526Y21973D01*
X168427Y22494D01*
X169163Y23230D01*
X169684Y24131D01*
X169953Y25137D01*
Y26177D01*
X169684Y27183D01*
X169633Y27271D01*
X172525Y30163D01*
X172987Y29972D01*
Y13091D01*
X167944Y8049D01*
X144638D01*
Y9453D01*
X136732D01*
X136732Y1547D01*
X136239Y1529D01*
X132872D01*
X132738Y2029D01*
X133270Y2337D01*
X134006Y3073D01*
X134527Y3974D01*
X134796Y4980D01*
Y6020D01*
X134527Y7026D01*
X134006Y7927D01*
X133270Y8663D01*
X132369Y9184D01*
X131363Y9453D01*
X130323D01*
X129317Y9184D01*
X129229Y9133D01*
X128427Y9934D01*
Y44828D01*
X128427Y44828D01*
X128319Y45375D01*
X128009Y45838D01*
X128009Y45838D01*
X107175Y66672D01*
X107385Y67169D01*
X108037Y67439D01*
X108599Y68001D01*
X108904Y68736D01*
Y68893D01*
X109162Y69151D01*
X124078D01*
X124078Y69151D01*
X124625Y69260D01*
X125088Y69569D01*
X130591Y75073D01*
X150409D01*
X154573Y70909D01*
D02*
G37*
G36*
X5906Y116581D02*
X174699D01*
X174706Y116581D01*
X175197Y116581D01*
X175678Y116534D01*
X176334Y116448D01*
X177393Y116009D01*
X178303Y115311D01*
X179001Y114401D01*
X179440Y113342D01*
X179583Y112256D01*
X179573Y112205D01*
Y6404D01*
X179573Y6397D01*
X179573Y5906D01*
X179527Y5425D01*
X179440Y4769D01*
X179001Y3709D01*
X178303Y2799D01*
X177393Y2101D01*
X176334Y1662D01*
X175248Y1519D01*
X175197Y1529D01*
X145131D01*
X144638Y1547D01*
X144638Y2598D01*
X144992Y2951D01*
X169000D01*
X169975Y3145D01*
X170802Y3698D01*
X177338Y10233D01*
X177891Y11060D01*
X178085Y12036D01*
Y97035D01*
X177891Y98011D01*
X177338Y98838D01*
X173641Y102534D01*
X172814Y103087D01*
X171839Y103281D01*
X169953D01*
Y106138D01*
X162047D01*
Y104734D01*
X153987D01*
X152418Y106302D01*
X151591Y106855D01*
X150616Y107049D01*
X140606D01*
X140513Y107121D01*
X139783Y107423D01*
X139000Y107526D01*
X99000D01*
X98217Y107423D01*
X97487Y107121D01*
X96860Y106640D01*
X96860Y106640D01*
X92860Y102640D01*
X92379Y102013D01*
X92077Y101283D01*
X91974Y100500D01*
Y92753D01*
X89747Y90526D01*
X79500D01*
X78717Y90423D01*
X77987Y90121D01*
X77360Y89640D01*
X77057Y89245D01*
X76557Y89415D01*
Y92468D01*
X76526Y92708D01*
Y96000D01*
Y99000D01*
Y102000D01*
Y105000D01*
X76423Y105783D01*
X76121Y106513D01*
X75640Y107140D01*
X75013Y107621D01*
X74283Y107923D01*
X73500Y108026D01*
X72717Y107923D01*
X71987Y107621D01*
X71360Y107140D01*
X70880Y106513D01*
X70577Y105783D01*
X70474Y105000D01*
Y102000D01*
Y99000D01*
Y96000D01*
Y92468D01*
X70506Y92229D01*
Y45000D01*
Y44858D01*
X69187Y43539D01*
X54107D01*
X54041Y44039D01*
X54658Y44204D01*
X55342Y44599D01*
X55901Y45158D01*
X56296Y45842D01*
X56500Y46605D01*
Y47395D01*
X56296Y48158D01*
X56049Y48585D01*
Y70415D01*
X56296Y70842D01*
X56500Y71605D01*
Y72395D01*
X56296Y73158D01*
X55901Y73842D01*
X55342Y74401D01*
X54658Y74796D01*
X53895Y75000D01*
X53105D01*
X52342Y74796D01*
X51658Y74401D01*
X51099Y73842D01*
X50704Y73158D01*
X50500Y72395D01*
Y71605D01*
X50704Y70842D01*
X50951Y70415D01*
Y48585D01*
X50704Y48158D01*
X50500Y47395D01*
Y46605D01*
X50704Y45842D01*
X51099Y45158D01*
X51658Y44599D01*
X52342Y44204D01*
X52959Y44039D01*
X52893Y43539D01*
X49500D01*
X49303Y43500D01*
X49102D01*
X48917Y43423D01*
X48720Y43384D01*
X48553Y43272D01*
X48367Y43196D01*
X48225Y43053D01*
X48058Y42942D01*
X47947Y42775D01*
X47804Y42633D01*
X47728Y42447D01*
X47616Y42280D01*
X47577Y42083D01*
X47500Y41898D01*
Y41697D01*
X47461Y41500D01*
X47500Y41303D01*
Y41102D01*
X47577Y40917D01*
X47616Y40720D01*
X47728Y40553D01*
X47804Y40367D01*
X47947Y40225D01*
X48058Y40058D01*
X48225Y39946D01*
X48367Y39805D01*
X48553Y39728D01*
X48720Y39616D01*
X48917Y39577D01*
X49102Y39500D01*
X49303D01*
X49500Y39461D01*
X70032D01*
X70119Y39478D01*
X70506Y39161D01*
Y14740D01*
X70474Y14500D01*
X70577Y13717D01*
X70880Y12987D01*
X71360Y12360D01*
X71987Y11880D01*
X72717Y11577D01*
X73500Y11474D01*
X74283Y11577D01*
X75013Y11880D01*
X75640Y12360D01*
X75671Y12392D01*
X76152Y13019D01*
X76454Y13748D01*
X76557Y14532D01*
Y33156D01*
X77057Y33350D01*
X77717Y33077D01*
X78500Y32974D01*
X111000D01*
X111783Y33077D01*
X112513Y33380D01*
X113140Y33860D01*
X113620Y34487D01*
X113923Y35217D01*
X114026Y36000D01*
X113923Y36783D01*
X113620Y37513D01*
X113140Y38140D01*
X112513Y38620D01*
X111783Y38923D01*
X111000Y39026D01*
X79753D01*
X76557Y42222D01*
Y45000D01*
Y85585D01*
X77057Y85755D01*
X77360Y85360D01*
X77987Y84879D01*
X78717Y84577D01*
X79500Y84474D01*
X95000D01*
X95783Y84577D01*
X96513Y84879D01*
X97140Y85360D01*
X97620Y85987D01*
X97923Y86717D01*
X98026Y87500D01*
Y91500D01*
X98026Y91500D01*
X98026Y91500D01*
Y99247D01*
X100253Y101474D01*
X137747D01*
X141974Y97247D01*
Y90500D01*
X142077Y89717D01*
X142379Y88987D01*
X142860Y88360D01*
X143487Y87880D01*
X144217Y87577D01*
X145000Y87474D01*
X145783Y87577D01*
X146513Y87880D01*
X147140Y88360D01*
X147620Y88987D01*
X147923Y89717D01*
X148026Y90500D01*
Y98500D01*
X147923Y99283D01*
X147620Y100013D01*
X147140Y100640D01*
X146290Y101489D01*
X146482Y101951D01*
X149560D01*
X151129Y100383D01*
X151955Y99830D01*
X152931Y99636D01*
X162047D01*
Y98232D01*
X167207D01*
X167453Y98183D01*
X170783D01*
X172987Y95979D01*
Y53862D01*
X168468Y49344D01*
X167453D01*
X167207Y49295D01*
X162047D01*
Y42125D01*
X161585Y41934D01*
X159518Y44001D01*
Y72366D01*
X159518Y72366D01*
X159410Y72912D01*
X159100Y73375D01*
X152875Y79600D01*
X152412Y79910D01*
X151866Y80018D01*
X151866Y80018D01*
X129134D01*
X129134Y80018D01*
X128588Y79910D01*
X128125Y79600D01*
X122621Y74097D01*
X109221D01*
X108922Y74396D01*
Y74775D01*
X108617Y75510D01*
X108054Y76073D01*
X107319Y76377D01*
X106524D01*
X105789Y76073D01*
X105226Y75510D01*
X104922Y74775D01*
Y73979D01*
X105226Y73244D01*
X105789Y72682D01*
X106524Y72377D01*
X106903D01*
X107281Y71999D01*
X107300Y71971D01*
X107276Y71302D01*
X107108Y71134D01*
X106506D01*
X105771Y70830D01*
X105208Y70267D01*
X104904Y69532D01*
Y68736D01*
X105032Y68427D01*
X104698Y67927D01*
X100591D01*
X96427Y72091D01*
Y72765D01*
X96731Y73068D01*
X96785D01*
X97520Y73373D01*
X98083Y73935D01*
X98387Y74670D01*
Y75466D01*
X98083Y76201D01*
X97520Y76764D01*
X96785Y77068D01*
X95990D01*
X95254Y76764D01*
X94692Y76201D01*
X94407Y75514D01*
X94355Y75504D01*
X94159Y75489D01*
X93907Y75514D01*
X93639Y76163D01*
X93076Y76726D01*
X92341Y77030D01*
X91545D01*
X90810Y76726D01*
X90247Y76163D01*
X89943Y75428D01*
Y74633D01*
X90247Y73897D01*
X90810Y73335D01*
X91545Y73030D01*
X91573D01*
Y70672D01*
X91573Y70672D01*
X91681Y70125D01*
X91991Y69662D01*
X98162Y63491D01*
X98162Y63491D01*
X98625Y63181D01*
X99172Y63073D01*
X99172Y63073D01*
X103909D01*
X123573Y43409D01*
Y10091D01*
X122614Y9133D01*
X122526Y9184D01*
X121520Y9453D01*
X120480D01*
X119474Y9184D01*
X118573Y8663D01*
X117837Y7927D01*
X117316Y7026D01*
X117047Y6020D01*
Y4980D01*
X117316Y3974D01*
X117837Y3073D01*
X118573Y2337D01*
X119105Y2029D01*
X118971Y1529D01*
X6404D01*
X6397Y1529D01*
X5906Y1529D01*
X5425Y1576D01*
X4769Y1662D01*
X3709Y2101D01*
X2799Y2799D01*
X2101Y3709D01*
X1662Y4769D01*
X1519Y5854D01*
X1529Y5906D01*
Y111708D01*
X1529Y111712D01*
X1529Y112205D01*
X1576Y112686D01*
X1662Y113342D01*
X2101Y114401D01*
X2799Y115311D01*
X3709Y116009D01*
X4769Y116448D01*
X5854Y116591D01*
X5906Y116581D01*
D02*
G37*
%LPC*%
G36*
X142261Y115634D02*
X141432D01*
X140667Y115317D01*
X140081Y114731D01*
X139764Y113965D01*
Y113137D01*
X140081Y112371D01*
X140667Y111786D01*
X141432Y111469D01*
X142261D01*
X143026Y111786D01*
X143612Y112371D01*
X143929Y113137D01*
Y113965D01*
X143612Y114731D01*
X143026Y115317D01*
X142261Y115634D01*
D02*
G37*
G36*
X135568D02*
X134739D01*
X133974Y115317D01*
X133388Y114731D01*
X133071Y113965D01*
Y113137D01*
X133388Y112371D01*
X133974Y111786D01*
X134739Y111469D01*
X135568D01*
X136333Y111786D01*
X136919Y112371D01*
X137236Y113137D01*
Y113965D01*
X136919Y114731D01*
X136333Y115317D01*
X135568Y115634D01*
D02*
G37*
G36*
X166520Y96296D02*
X165480D01*
X164474Y96027D01*
X163573Y95506D01*
X162837Y94770D01*
X162316Y93869D01*
X162047Y92863D01*
Y91823D01*
X162315Y90821D01*
X157870Y86376D01*
X120206D01*
X119620Y86260D01*
X119124Y85928D01*
X115919Y82723D01*
X115587Y82227D01*
X115471Y81641D01*
Y79299D01*
X115305Y79133D01*
X115000Y78398D01*
Y77602D01*
X115305Y76867D01*
X115867Y76305D01*
X116602Y76000D01*
X117398D01*
X118133Y76305D01*
X118695Y76867D01*
X119000Y77602D01*
Y78038D01*
X119084Y78416D01*
X119462Y78500D01*
X119898D01*
X120633Y78804D01*
X121195Y79367D01*
X121500Y80102D01*
Y80337D01*
X122134Y80971D01*
X162319D01*
X162837Y80073D01*
X163573Y79337D01*
X164474Y78816D01*
X165480Y78547D01*
X166520D01*
X167526Y78816D01*
X168427Y79337D01*
X169163Y80073D01*
X169684Y80974D01*
X169953Y81980D01*
Y83020D01*
X169684Y84026D01*
X169163Y84927D01*
X168427Y85663D01*
X167526Y86184D01*
X166520Y86453D01*
X165480D01*
X164474Y86184D01*
X163573Y85663D01*
X162837Y84927D01*
X162319Y84029D01*
X160503D01*
X160311Y84491D01*
X164478Y88658D01*
X165480Y88390D01*
X166520D01*
X167526Y88659D01*
X168427Y89180D01*
X169163Y89916D01*
X169684Y90817D01*
X169953Y91823D01*
Y92863D01*
X169684Y93869D01*
X169163Y94770D01*
X168427Y95506D01*
X167526Y96027D01*
X166520Y96296D01*
D02*
G37*
G36*
X24030Y72658D02*
X23124D01*
X22286Y72311D01*
X21644Y71669D01*
X21297Y70831D01*
Y69925D01*
X21644Y69087D01*
X22286Y68445D01*
X23124Y68098D01*
X24030D01*
X24868Y68445D01*
X25510Y69087D01*
X25857Y69925D01*
Y70831D01*
X25510Y71669D01*
X24868Y72311D01*
X24030Y72658D01*
D02*
G37*
G36*
X18162Y68956D02*
X17334D01*
X16568Y68639D01*
X15982Y68053D01*
X15665Y67287D01*
Y66459D01*
X15982Y65693D01*
X16568Y65107D01*
X17334Y64790D01*
X18162D01*
X18928Y65107D01*
X19514Y65693D01*
X19831Y66459D01*
Y67287D01*
X19514Y68053D01*
X18928Y68639D01*
X18162Y68956D01*
D02*
G37*
G36*
X35398Y63957D02*
X34602D01*
X33867Y63652D01*
X33305Y63090D01*
X33000Y62355D01*
Y61559D01*
X33101Y61315D01*
X32718Y60932D01*
X32544Y61005D01*
X31749D01*
X31014Y60700D01*
X30741Y60427D01*
X25655D01*
Y63347D01*
X15781D01*
Y59773D01*
Y57213D01*
Y54653D01*
Y52093D01*
X15781D01*
X15851Y51988D01*
X15665Y51539D01*
Y50711D01*
X15982Y49945D01*
X16568Y49359D01*
X17334Y49042D01*
X18162D01*
X18928Y49359D01*
X19514Y49945D01*
X19831Y50711D01*
Y51539D01*
X19774Y51677D01*
X20052Y52093D01*
X25655D01*
Y52096D01*
X29881D01*
X37716Y44261D01*
Y38251D01*
X37381Y37916D01*
X37000Y36997D01*
Y36003D01*
X37381Y35084D01*
X38084Y34381D01*
X39003Y34000D01*
X39997D01*
X40916Y34381D01*
X41619Y35084D01*
X42000Y36003D01*
Y36997D01*
X41619Y37916D01*
X41284Y38251D01*
Y45000D01*
X41148Y45683D01*
X40762Y46262D01*
X40762Y46262D01*
X35805Y51219D01*
X35902Y51709D01*
X36133Y51805D01*
X36696Y52367D01*
X37000Y53102D01*
Y53898D01*
X36696Y54633D01*
X36427Y54901D01*
Y58000D01*
Y60556D01*
X36696Y60824D01*
X37000Y61559D01*
Y62355D01*
X36696Y63090D01*
X36133Y63652D01*
X35398Y63957D01*
D02*
G37*
G36*
X24030Y49902D02*
X23124D01*
X22286Y49554D01*
X21644Y48913D01*
X21297Y48075D01*
Y47169D01*
X21644Y46331D01*
X22286Y45689D01*
X23124Y45342D01*
X24030D01*
X24868Y45689D01*
X25510Y46331D01*
X25857Y47169D01*
Y48075D01*
X25510Y48913D01*
X24868Y49554D01*
X24030Y49902D01*
D02*
G37*
%LPD*%
D10*
X117000Y81641D02*
X120206Y84847D01*
X158504D02*
X166000Y92343D01*
X120206Y84847D02*
X158504D01*
X117000Y78000D02*
Y81641D01*
X121500Y82500D02*
X166000D01*
X119500Y80500D02*
X121500Y82500D01*
D19*
X99172Y64500D02*
X104500D01*
X93000Y70672D02*
X99172Y64500D01*
X93000Y70672D02*
Y73649D01*
X100000Y66500D02*
X105328D01*
X95000Y71500D02*
Y73356D01*
Y71500D02*
X100000Y66500D01*
X127000Y9343D02*
Y44828D01*
X104500Y64500D02*
X125000Y44000D01*
Y9500D02*
Y44000D01*
X105328Y66500D02*
X127000Y44828D01*
X121000Y5500D02*
X125000Y9500D01*
X127000Y9343D02*
X130843Y5500D01*
X91943Y74706D02*
X93000Y73649D01*
X91943Y74706D02*
Y75030D01*
X96387Y74743D02*
Y75068D01*
X95000Y73356D02*
X96387Y74743D01*
X129134Y78591D02*
X151866D01*
X158091Y43409D02*
Y72366D01*
X130000Y76500D02*
X151000D01*
X156000Y40500D02*
Y71500D01*
X151866Y78591D02*
X158091Y72366D01*
X151000Y76500D02*
X156000Y71500D01*
X123212Y72669D02*
X129134Y78591D01*
X124078Y70578D02*
X130000Y76500D01*
X108630Y72669D02*
X123212D01*
X108571Y70578D02*
X124078D01*
X161000Y35500D02*
X166000D01*
X156000Y40500D02*
X161000Y35500D01*
X166000Y25657D02*
X172000Y31657D01*
Y37500D01*
X161500Y40000D02*
X169500D01*
X172000Y37500D01*
X158091Y43409D02*
X161500Y40000D01*
X106922Y74377D02*
X108630Y72669D01*
X106904Y69134D02*
X107127D01*
X108571Y70578D01*
X35000Y53500D02*
Y58000D01*
Y61957D01*
X33440Y56440D02*
X35000Y58000D01*
X20719Y56440D02*
X33440D01*
X32142Y59000D02*
X32147Y59004D01*
X20719Y59000D02*
X32142D01*
X20688Y56470D02*
X20719Y56440D01*
D59*
X49500Y41500D02*
X70032D01*
X73532Y45000D01*
D60*
X167453Y100732D02*
X171839D01*
X175536Y97035D01*
Y12036D02*
Y97035D01*
X167453Y46795D02*
X169524D01*
X175536Y52806D02*
X175536D01*
X166000Y45342D02*
X167453Y46795D01*
X169524D02*
X175536Y52806D01*
X169000Y5500D02*
X175536Y12036D01*
X140685Y5500D02*
X169000D01*
X166000Y102185D02*
X167453Y100732D01*
X139000Y104500D02*
X150616D01*
X152931Y102185D02*
X166000D01*
X150616Y104500D02*
X152931Y102185D01*
X53500Y47000D02*
Y72000D01*
D61*
X39500Y36500D02*
Y45000D01*
X30620Y53880D02*
X39500Y45000D01*
X20719Y53880D02*
X30620D01*
D62*
X73532Y45000D02*
Y92468D01*
Y40968D02*
Y45000D01*
X73500Y14500D02*
X73532Y14532D01*
Y40968D01*
X73500Y92468D02*
Y96000D01*
X98000Y36000D02*
X111000D01*
X84000D02*
X98000D01*
X78500D02*
X84000D01*
X73532Y40968D02*
X78500Y36000D01*
X73500Y102000D02*
Y105000D01*
Y99000D02*
Y102000D01*
Y96000D02*
Y99000D01*
X114500Y104500D02*
X139000D01*
X100000D02*
X114500D01*
X99000D02*
X100000D01*
X95000Y91500D02*
Y100500D01*
Y87500D02*
Y91500D01*
X91500Y88000D02*
X95000Y91500D01*
X91500Y87500D02*
Y88000D01*
Y87500D02*
X95000D01*
X86500D02*
X91500D01*
X83000D02*
X86500D01*
X79500D02*
X83000D01*
X145000Y90500D02*
Y98500D01*
X139000Y104500D02*
X145000Y98500D01*
X95000Y100500D02*
X99000Y104500D01*
D63*
X140685Y5500D02*
D03*
D64*
X130843D02*
D03*
X121000D02*
D03*
X111158D02*
D03*
X166000Y35500D02*
D03*
Y25657D02*
D03*
Y15815D02*
D03*
Y92343D02*
D03*
Y82500D02*
D03*
Y72658D02*
D03*
D65*
Y45342D02*
D03*
Y102185D02*
D03*
D66*
X17748Y51125D02*
D03*
Y66873D02*
D03*
D67*
X23577Y47622D02*
D03*
Y70378D02*
D03*
D68*
X60000Y20000D02*
D03*
X160000D02*
D03*
Y30000D02*
D03*
Y75000D02*
D03*
Y95000D02*
D03*
X150000Y70000D02*
D03*
X95000Y55000D02*
D03*
Y60000D02*
D03*
X100000D02*
D03*
X150000D02*
D03*
Y50000D02*
D03*
Y40000D02*
D03*
X130000Y30000D02*
D03*
X140000D02*
D03*
X150000D02*
D03*
Y20000D02*
D03*
X140000D02*
D03*
X130000D02*
D03*
X120000D02*
D03*
X110000D02*
D03*
X100000Y55000D02*
D03*
Y20000D02*
D03*
Y10000D02*
D03*
X90000D02*
D03*
Y20000D02*
D03*
X80000D02*
D03*
Y10000D02*
D03*
X60000Y70000D02*
D03*
Y80000D02*
D03*
X35000Y85000D02*
D03*
Y100000D02*
D03*
X25000Y30000D02*
D03*
Y20000D02*
D03*
Y10000D02*
D03*
X15000Y30000D02*
D03*
Y20000D02*
D03*
Y10000D02*
D03*
X5000D02*
D03*
Y20000D02*
D03*
Y30000D02*
D03*
Y60000D02*
D03*
X60000Y90000D02*
D03*
X50000D02*
D03*
X150000Y100000D02*
D03*
X170000Y110000D02*
D03*
X160000D02*
D03*
X150000D02*
D03*
X110000D02*
D03*
X100000D02*
D03*
X90000D02*
D03*
X80000D02*
D03*
X60000D02*
D03*
X50000D02*
D03*
X5000Y90000D02*
D03*
X15000D02*
D03*
X25000Y110000D02*
D03*
X5000Y100000D02*
D03*
X15000D02*
D03*
Y110000D02*
D03*
X5000D02*
D03*
X49500Y41500D02*
D03*
X39500Y51500D02*
D03*
X63500Y45500D02*
D03*
Y50000D02*
D03*
Y53500D02*
D03*
X85500Y78500D02*
D03*
X80500D02*
D03*
Y82500D02*
D03*
X85500D02*
D03*
X98500Y85500D02*
D03*
X73647Y50205D02*
D03*
X111000Y36000D02*
D03*
X84000D02*
D03*
X98000D02*
D03*
X95000Y87500D02*
D03*
X91500D02*
D03*
X86500D02*
D03*
X83000D02*
D03*
X79500D02*
D03*
X73532Y92468D02*
D03*
X73500Y96000D02*
D03*
Y99000D02*
D03*
Y102000D02*
D03*
Y105000D02*
D03*
X91943Y75030D02*
D03*
X96387Y75068D02*
D03*
X106904Y69134D02*
D03*
X106922Y74377D02*
D03*
X119500Y80500D02*
D03*
X117000Y78000D02*
D03*
X123000Y58000D02*
D03*
X128000D02*
D03*
X133012Y52172D02*
D03*
X142516Y45083D02*
D03*
X146000Y48567D02*
D03*
Y54587D02*
D03*
Y60606D02*
D03*
X139000Y70000D02*
D03*
X35000Y53500D02*
D03*
X32147Y59004D02*
D03*
X35000Y61957D02*
D03*
D69*
X39500Y36500D02*
D03*
X73500Y14500D02*
D03*
X139000Y104500D02*
D03*
X145000Y90500D02*
D03*
X114500Y104500D02*
D03*
X100000D02*
D03*
D70*
X53500Y47000D02*
D03*
Y72000D02*
D03*
D71*
X20719Y64120D02*
D03*
Y61560D02*
D03*
Y59000D02*
D03*
Y56440D02*
D03*
Y53880D02*
D03*
D72*
X18550Y71598D02*
D03*
Y46402D02*
D03*
D73*
X9283Y46401D02*
D03*
Y71599D02*
D03*
M02*
