G04*
G04 #@! TF.GenerationSoftware,Altium Limited,Altium Designer,21.2.2 (38)*
G04*
G04 Layer_Color=16711935*
%FSLAX25Y25*%
%MOIN*%
G70*
G04*
G04 #@! TF.SameCoordinates,90EED6A2-F189-4C83-9C70-3762F5BC3ACE*
G04*
G04*
G04 #@! TF.FilePolarity,Negative*
G04*
G01*
G75*
%ADD53R,0.06706X0.06706*%
%ADD54C,0.06706*%
%ADD55R,0.06706X0.06706*%
%ADD56C,0.00800*%
%ADD57C,0.02965*%
%ADD58C,0.03359*%
%ADD74R,0.08674X0.02375*%
%ADD75R,0.04737X0.07099*%
%ADD76R,0.06312X0.08674*%
D53*
X140685Y5500D02*
D03*
D54*
X130843D02*
D03*
X121000D02*
D03*
X111158D02*
D03*
X166000Y35500D02*
D03*
Y25657D02*
D03*
Y15815D02*
D03*
Y92343D02*
D03*
Y82500D02*
D03*
Y72658D02*
D03*
D55*
Y45342D02*
D03*
Y102185D02*
D03*
D56*
X135153Y113551D02*
D03*
X141847D02*
D03*
D57*
X17748Y51125D02*
D03*
Y66873D02*
D03*
D58*
X23577Y47622D02*
D03*
Y70378D02*
D03*
D74*
X20719Y64120D02*
D03*
Y61560D02*
D03*
Y59000D02*
D03*
Y56440D02*
D03*
Y53880D02*
D03*
D75*
X18550Y71598D02*
D03*
Y46402D02*
D03*
D76*
X9283Y46401D02*
D03*
Y71599D02*
D03*
M02*
