G04*
G04 #@! TF.GenerationSoftware,Altium Limited,Altium Designer,21.2.2 (38)*
G04*
G04 Layer_Color=65535*
%FSLAX25Y25*%
%MOIN*%
G70*
G04*
G04 #@! TF.SameCoordinates,90EED6A2-F189-4C83-9C70-3762F5BC3ACE*
G04*
G04*
G04 #@! TF.FilePolarity,Positive*
G04*
G01*
G75*
%ADD10C,0.01000*%
%ADD11C,0.00787*%
%ADD12C,0.00598*%
%ADD13C,0.01575*%
%ADD14C,0.00100*%
%ADD15C,0.00120*%
%ADD16C,0.00600*%
%ADD17C,0.00866*%
%ADD18C,0.00394*%
%ADD19C,0.00800*%
%ADD20R,0.04724X0.01181*%
D10*
X38000Y27500D02*
G03*
X38000Y27500I-500J0D01*
G01*
X129000Y67500D02*
G03*
X129000Y67500I-500J0D01*
G01*
X101316Y14988D02*
X150489D01*
X150528Y-9067D02*
Y14949D01*
X101315Y-9067D02*
Y14949D01*
Y-9067D02*
X150528D01*
X148464Y8300D02*
X150434D01*
X148464Y-7100D02*
Y8300D01*
X103184Y-7100D02*
X148464D01*
X103184D02*
Y6680D01*
X101355Y6681D02*
X103184Y6680D01*
Y13080D02*
X108754D01*
Y14850D01*
X148464Y10300D02*
X150434D01*
X148464D02*
Y13080D01*
X142904D02*
X148464D01*
X129764Y13079D02*
X129935Y13083D01*
X112441D02*
X129935D01*
X112441D02*
Y14854D01*
X142890Y13081D02*
Y14848D01*
X139209Y13079D02*
Y14850D01*
X129935Y13079D02*
X139209D01*
X101316Y9949D02*
X103184Y9950D01*
Y13080D01*
X39744Y26602D02*
X45256D01*
X39744Y14398D02*
X45256D01*
Y26110D02*
Y26602D01*
Y18630D02*
Y22370D01*
Y14398D02*
Y14890D01*
X39744Y26307D02*
Y26602D01*
Y18630D02*
Y20598D01*
Y14398D02*
Y14890D01*
X156512Y5973D02*
Y55146D01*
X156551Y55185D02*
X180567D01*
X156551Y5973D02*
X180567D01*
X180567D02*
Y55185D01*
X163200Y53121D02*
Y55091D01*
Y53121D02*
X178600D01*
Y7841D02*
Y53121D01*
X164820Y7841D02*
X178600D01*
X164819Y6012D02*
X164820Y7841D01*
X158420D02*
Y13411D01*
X156650D02*
X158420D01*
X161200Y53121D02*
Y55091D01*
X158420Y53121D02*
X161200D01*
X158420Y47561D02*
Y53121D01*
X158416Y34592D02*
X158421Y34421D01*
X158416Y17098D02*
Y34592D01*
X156646Y17098D02*
X158416D01*
X156652Y47547D02*
X158419D01*
X156650Y43866D02*
X158421D01*
Y34591D02*
Y43866D01*
X161550Y7841D02*
X161551Y5973D01*
X158420Y7841D02*
X161550D01*
X156512Y62816D02*
Y111989D01*
X156551Y112028D02*
X180567D01*
X156551Y62815D02*
X180567D01*
X180567D02*
Y112028D01*
X163200Y109964D02*
Y111934D01*
Y109964D02*
X178600D01*
Y64684D02*
Y109964D01*
X164820Y64684D02*
X178600D01*
X164819Y62855D02*
X164820Y64684D01*
X158420D02*
Y70254D01*
X156650D02*
X158420D01*
X161200Y109964D02*
Y111934D01*
X158420Y109964D02*
X161200D01*
X158420Y104404D02*
Y109964D01*
X158416Y91435D02*
X158421Y91264D01*
X158416Y73941D02*
Y91435D01*
X156646Y73941D02*
X158416D01*
X156652Y104390D02*
X158419D01*
X156650Y100709D02*
X158421D01*
Y91435D02*
Y100709D01*
X161550Y64684D02*
X161551Y62816D01*
X158420Y64684D02*
X161550D01*
X46421Y112098D02*
X61382D01*
X46421Y86902D02*
X61382D01*
Y91331D01*
Y107669D02*
Y112098D01*
X46421Y86902D02*
Y112098D01*
X143618Y116799D02*
Y120736D01*
X126800Y116799D02*
X150211D01*
X133382D02*
Y120736D01*
X143618D01*
X126800Y107449D02*
Y116799D01*
X150211Y107449D02*
Y116799D01*
X126800Y107449D02*
X150211D01*
X-1029Y41284D02*
Y76717D01*
X5344D01*
X15038D02*
X20698D01*
X-1029Y41284D02*
X5344D01*
X15038D02*
X20698D01*
X29000Y44083D02*
Y44311D01*
Y73690D02*
Y73917D01*
D11*
X64890Y46031D02*
G03*
X66465Y44457I1575J0D01*
G01*
X69535D02*
G03*
X71110Y46031I0J1575D01*
G01*
X71110Y54969D02*
G03*
X69535Y56543I-1575J-0D01*
G01*
X66465Y56543D02*
G03*
X64890Y54969I0J-1575D01*
G01*
X89610Y99968D02*
G03*
X88035Y101543I-1575J-0D01*
G01*
X84965D02*
G03*
X83390Y99968I0J-1575D01*
G01*
X83390Y91031D02*
G03*
X84965Y89457I1575J0D01*
G01*
X88035Y89457D02*
G03*
X89610Y91031I0J1575D01*
G01*
X82610Y99968D02*
G03*
X81035Y101543I-1575J-0D01*
G01*
X77965D02*
G03*
X76390Y99968I0J-1575D01*
G01*
X76390Y91031D02*
G03*
X77965Y89457I1575J0D01*
G01*
X81035Y89457D02*
G03*
X82610Y91031I0J1575D01*
G01*
X32610Y99968D02*
G03*
X31035Y101543I-1575J-0D01*
G01*
X27965D02*
G03*
X26390Y99968I0J-1575D01*
G01*
X26390Y91031D02*
G03*
X27965Y89457I1575J0D01*
G01*
X31035Y89457D02*
G03*
X32610Y91031I0J1575D01*
G01*
X25610Y99968D02*
G03*
X24035Y101543I-1575J-0D01*
G01*
X20965D02*
G03*
X19390Y99968I0J-1575D01*
G01*
X19390Y91031D02*
G03*
X20965Y89457I1575J0D01*
G01*
X24035Y89457D02*
G03*
X25610Y91031I0J1575D01*
G01*
X115110Y33468D02*
G03*
X113535Y35043I-1575J-0D01*
G01*
X110465D02*
G03*
X108890Y33468I0J-1575D01*
G01*
X108890Y24532D02*
G03*
X110465Y22957I1575J0D01*
G01*
X113535Y22957D02*
G03*
X115110Y24532I0J1575D01*
G01*
X38032Y51610D02*
G03*
X36457Y50035I0J-1575D01*
G01*
Y46965D02*
G03*
X38032Y45390I1575J-0D01*
G01*
X46968Y45390D02*
G03*
X48543Y46965I-0J1575D01*
G01*
X48543Y50035D02*
G03*
X46968Y51610I-1575J0D01*
G01*
X38032Y72610D02*
G03*
X36457Y71035I0J-1575D01*
G01*
Y67965D02*
G03*
X38032Y66390I1575J-0D01*
G01*
X46968Y66390D02*
G03*
X48543Y67965I-0J1575D01*
G01*
X48543Y71035D02*
G03*
X46968Y72610I-1575J0D01*
G01*
X96610Y99968D02*
G03*
X95035Y101543I-1575J-0D01*
G01*
X91965D02*
G03*
X90390Y99968I0J-1575D01*
G01*
X90390Y91031D02*
G03*
X91965Y89457I1575J0D01*
G01*
X95035Y89457D02*
G03*
X96610Y91031I0J1575D01*
G01*
X110610Y99968D02*
G03*
X109035Y101543I-1575J-0D01*
G01*
X105965D02*
G03*
X104390Y99968I0J-1575D01*
G01*
X104390Y91031D02*
G03*
X105965Y89457I1575J0D01*
G01*
X109035Y89457D02*
G03*
X110610Y91031I0J1575D01*
G01*
X140469Y77140D02*
G03*
X142043Y78715I-0J1575D01*
G01*
Y81785D02*
G03*
X140469Y83360I-1575J0D01*
G01*
X131532Y83360D02*
G03*
X129957Y81785I0J-1575D01*
G01*
X129957Y78715D02*
G03*
X131532Y77140I1575J0D01*
G01*
X131781Y97360D02*
G03*
X130207Y95785I0J-1575D01*
G01*
Y92715D02*
G03*
X131781Y91140I1575J0D01*
G01*
X140718Y91140D02*
G03*
X142293Y92715I-0J1575D01*
G01*
X142293Y95785D02*
G03*
X140718Y97360I-1575J0D01*
G01*
X140512Y45422D02*
G03*
X142087Y46996I-0J1575D01*
G01*
Y50067D02*
G03*
X140512Y51642I-1575J0D01*
G01*
X131575Y51642D02*
G03*
X130000Y50067I0J-1575D01*
G01*
X130000Y46997D02*
G03*
X131575Y45422I1575J0D01*
G01*
X140512Y70422D02*
G03*
X142087Y71996I-0J1575D01*
G01*
Y75067D02*
G03*
X140512Y76642I-1575J0D01*
G01*
X131575Y76642D02*
G03*
X130000Y75067I0J-1575D01*
G01*
X130000Y71996D02*
G03*
X131575Y70422I1575J0D01*
G01*
X122110Y33468D02*
G03*
X120535Y35043I-1575J-0D01*
G01*
X117465D02*
G03*
X115890Y33468I0J-1575D01*
G01*
X115890Y24532D02*
G03*
X117465Y22957I1575J0D01*
G01*
X120535Y22957D02*
G03*
X122110Y24532I0J1575D01*
G01*
X44075Y38390D02*
X48543D01*
X36457D02*
X40925D01*
X44075Y44610D02*
X48543D01*
X36457Y38390D02*
Y44610D01*
X48543Y38390D02*
Y44610D01*
X36457D02*
X40925D01*
X71110Y46031D02*
Y48925D01*
X71110Y52075D02*
Y54969D01*
X64890Y52075D02*
Y54969D01*
X66465Y44457D02*
X69535D01*
X66465Y56543D02*
X69535D01*
X64890Y46031D02*
Y48925D01*
X83390Y97075D02*
Y99968D01*
X83390Y91031D02*
Y93925D01*
X89610Y91031D02*
Y93925D01*
X84965Y101543D02*
X88035D01*
X84965Y89457D02*
X88035D01*
X89610Y97075D02*
Y99968D01*
X76390Y97075D02*
Y99968D01*
X76390Y91031D02*
Y93925D01*
X82610Y91031D02*
Y93925D01*
X77965Y101543D02*
X81035D01*
X77965Y89457D02*
X81035D01*
X82610Y97075D02*
Y99968D01*
X26390Y97075D02*
Y99968D01*
X26390Y91031D02*
Y93925D01*
X32610Y91031D02*
Y93925D01*
X27965Y101543D02*
X31035D01*
X27965Y89457D02*
X31035D01*
X32610Y97075D02*
Y99968D01*
X19390Y97075D02*
Y99968D01*
X19390Y91031D02*
Y93925D01*
X25610Y91031D02*
Y93925D01*
X20965Y101543D02*
X24035D01*
X20965Y89457D02*
X24035D01*
X25610Y97075D02*
Y99968D01*
X101110Y30575D02*
Y35043D01*
Y23882D02*
Y27425D01*
X94890Y30575D02*
Y35043D01*
X95650Y23095D02*
X100350D01*
X94890Y35043D02*
X101110D01*
X94890Y23882D02*
Y27425D01*
Y23882D02*
X95650Y23095D01*
X100350D02*
X101110Y23882D01*
X87110Y30575D02*
Y35043D01*
Y23882D02*
Y27425D01*
X80890Y30575D02*
Y35043D01*
X81650Y23095D02*
X86350D01*
X80890Y35043D02*
X87110D01*
X80890Y23882D02*
Y27425D01*
Y23882D02*
X81650Y23095D01*
X86350D02*
X87110Y23882D01*
X73110Y30575D02*
Y35043D01*
Y23882D02*
Y27425D01*
X66890Y30575D02*
Y35043D01*
X67650Y23095D02*
X72350D01*
X66890Y35043D02*
X73110D01*
X66890Y23882D02*
Y27425D01*
Y23882D02*
X67650Y23095D01*
X72350D02*
X73110Y23882D01*
X94110Y30575D02*
Y35043D01*
Y22957D02*
Y27425D01*
X87890Y30575D02*
Y35043D01*
Y22957D02*
X94110D01*
X87890Y35043D02*
X94110D01*
X87890Y22957D02*
Y27425D01*
X80110Y30575D02*
Y35043D01*
Y22957D02*
Y27425D01*
X73890Y30575D02*
Y35043D01*
Y22957D02*
X80110D01*
X73890Y35043D02*
X80110D01*
X73890Y22957D02*
Y27425D01*
X59890Y22957D02*
Y27425D01*
Y30575D02*
Y35043D01*
X66110Y22957D02*
Y27425D01*
X59890Y35043D02*
X66110D01*
X59890Y22957D02*
X66110D01*
Y30575D02*
Y35043D01*
X101890Y22957D02*
Y27425D01*
Y30575D02*
Y35043D01*
X108110Y22957D02*
Y27425D01*
X101890Y35043D02*
X108110D01*
X101890Y22957D02*
X108110D01*
Y30575D02*
Y35043D01*
X108890Y30575D02*
Y33468D01*
X108890Y24532D02*
Y27425D01*
X115110Y24532D02*
Y27425D01*
X110465Y35043D02*
X113535D01*
X110465Y22957D02*
X113535D01*
X115110Y30575D02*
Y33468D01*
X38032Y45390D02*
X40925D01*
X44075Y45390D02*
X46968D01*
X44075Y51610D02*
X46968D01*
X36457Y46965D02*
Y50035D01*
X48543Y46965D02*
Y50035D01*
X38032Y51610D02*
X40925D01*
X38032Y66390D02*
X40925D01*
X44075Y66390D02*
X46968D01*
X44075Y72610D02*
X46968D01*
X36457Y67965D02*
Y71035D01*
X48543Y67965D02*
Y71035D01*
X38032Y72610D02*
X40925D01*
X36457Y65610D02*
X40925D01*
X44075D02*
X48543D01*
X36457Y59390D02*
X40925D01*
X48543D02*
Y65610D01*
X36457Y59390D02*
Y65610D01*
X44075Y59390D02*
X48543D01*
X36457Y58610D02*
X40925D01*
X44075D02*
X48543D01*
X36457Y52390D02*
X40925D01*
X48543D02*
Y58610D01*
X36457Y52390D02*
Y58610D01*
X44075Y52390D02*
X48543D01*
X64890Y69957D02*
Y74425D01*
Y77575D02*
Y82043D01*
X71110Y69957D02*
Y74425D01*
X64890Y82043D02*
X71110D01*
X64890Y69957D02*
X71110D01*
Y77575D02*
Y82043D01*
X90390Y97075D02*
Y99968D01*
X90390Y91031D02*
Y93925D01*
X96610Y91031D02*
Y93925D01*
X91965Y101543D02*
X95035D01*
X91965Y89457D02*
X95035D01*
X96610Y97075D02*
Y99968D01*
X103610Y97075D02*
Y101543D01*
Y89457D02*
Y93925D01*
X97390Y97075D02*
Y101543D01*
Y89457D02*
X103610D01*
X97390Y101543D02*
X103610D01*
X97390Y89457D02*
Y93925D01*
X104390Y97075D02*
Y99968D01*
X104390Y91031D02*
Y93925D01*
X110610Y91031D02*
Y93925D01*
X105965Y101543D02*
X109035D01*
X105965Y89457D02*
X109035D01*
X110610Y97075D02*
Y99968D01*
X117610Y97325D02*
Y101793D01*
Y89707D02*
Y94175D01*
X111390Y97325D02*
Y101793D01*
Y89707D02*
X117610D01*
X111390Y101793D02*
X117610D01*
X111390Y89707D02*
Y94175D01*
X118390Y89707D02*
Y94175D01*
Y97325D02*
Y101793D01*
X124610Y89707D02*
Y94175D01*
X118390Y101793D02*
X124610D01*
X118390Y89707D02*
X124610D01*
Y97325D02*
Y101793D01*
X137575Y84140D02*
X142043D01*
X129957D02*
X134425D01*
X137575Y90360D02*
X142043D01*
X129957Y84140D02*
Y90360D01*
X142043Y84140D02*
Y90360D01*
X129957D02*
X134425D01*
X137575Y83360D02*
X140469D01*
X131532Y83360D02*
X134425D01*
X131532Y77140D02*
X134425D01*
X142043Y78715D02*
Y81785D01*
X129957Y78715D02*
Y81785D01*
X137575Y77140D02*
X140469D01*
X131781Y91140D02*
X134675D01*
X137825Y91140D02*
X140718D01*
X137825Y97360D02*
X140718D01*
X130207Y92715D02*
Y95785D01*
X142293Y92715D02*
Y95785D01*
X131781Y97360D02*
X134675D01*
X137618Y51642D02*
X140512D01*
X131575Y51642D02*
X134468D01*
X131575Y45422D02*
X134468D01*
X142087Y46997D02*
Y50067D01*
X130000Y46997D02*
Y50067D01*
X137618Y45422D02*
X140512D01*
X137618Y76642D02*
X140512D01*
X131575Y76642D02*
X134468D01*
X131575Y70422D02*
X134468D01*
X142087Y71996D02*
Y75067D01*
X130000Y71996D02*
Y75067D01*
X137618Y70422D02*
X140512D01*
X129957Y44610D02*
X134425D01*
X137575D02*
X142043D01*
X129957Y38390D02*
X134425D01*
X142043D02*
Y44610D01*
X129957Y38390D02*
Y44610D01*
X137575Y38390D02*
X142043D01*
X115890Y30575D02*
Y33468D01*
X115890Y24532D02*
Y27425D01*
X122110Y24532D02*
Y27425D01*
X117465Y35043D02*
X120535D01*
X117465Y22957D02*
X120535D01*
X122110Y30575D02*
Y33468D01*
X86866Y52368D02*
Y76768D01*
X113066D01*
Y50668D02*
Y76768D01*
X86866Y50668D02*
X113066D01*
X86866D02*
Y53668D01*
D12*
X45000Y32000D02*
G03*
X45000Y33500I0J750D01*
G01*
Y35000D02*
G03*
X45000Y33500I0J-750D01*
G01*
Y77000D02*
G03*
X45000Y78500I0J750D01*
G01*
Y80000D02*
G03*
X45000Y78500I0J-750D01*
G01*
X36500Y30500D02*
Y36500D01*
X53500Y30500D02*
Y36500D01*
X36500Y75500D02*
Y81500D01*
X53500Y75500D02*
Y81500D01*
D13*
X109583Y53370D02*
G03*
X109583Y53380I787J5D01*
G01*
D14*
X22624Y12095D02*
X25024D01*
X25624D02*
X26024D01*
X22624Y11995D02*
X25024D01*
X25624D02*
X26024D01*
X22524Y11895D02*
X25024D01*
X25524D02*
X25924D01*
X22524Y11795D02*
X24924D01*
X25524D02*
X25924D01*
X22524Y11695D02*
X24924D01*
X25524D02*
X25924D01*
X22424Y11595D02*
X24924D01*
X25524D02*
X25924D01*
X22424Y11495D02*
X24824D01*
X25424D02*
X25824D01*
X22424Y11395D02*
X24824D01*
X25424D02*
X25824D01*
X22324Y11295D02*
X24824D01*
X25424D02*
X25824D01*
X22324Y11195D02*
X24724D01*
X25324D02*
X25724D01*
X22324Y11095D02*
X24724D01*
X25324D02*
X25724D01*
X22224Y10995D02*
X24624D01*
X25224D02*
X25724D01*
X22224Y10895D02*
X24624D01*
X25224D02*
X25624D01*
X25224Y10795D02*
X25624D01*
X25124Y10695D02*
X25624D01*
X25124Y10595D02*
X25524D01*
X25024Y10495D02*
X25524D01*
X25024Y10395D02*
X25424D01*
X24924Y10295D02*
X25424D01*
X24924Y10195D02*
X25324D01*
X24824Y10095D02*
X25324D01*
X24724Y9995D02*
X25224D01*
X24724Y9895D02*
X25224D01*
X24624Y9795D02*
X25124D01*
X24524Y9695D02*
X25124D01*
X24524Y9595D02*
X25024D01*
X24424Y9495D02*
X24924D01*
X24324Y9395D02*
X24924D01*
X24224Y9295D02*
X24824D01*
X24124Y9195D02*
X24724D01*
X24024Y9095D02*
X24624D01*
X23924Y8995D02*
X24524D01*
X23824Y8895D02*
X24424D01*
X23724Y8795D02*
X24324D01*
X23624Y8695D02*
X24224D01*
X23524Y8595D02*
X24224D01*
X23324Y8495D02*
X24124D01*
X23224Y8395D02*
X23924D01*
X23024Y8295D02*
X23824D01*
X22824Y8195D02*
X23724D01*
X22624Y8095D02*
X23524D01*
X22424Y7995D02*
X23424D01*
X22224Y7895D02*
X23224D01*
X23924Y19895D02*
X24124D01*
X23924Y19795D02*
X24224D01*
X24024Y19695D02*
X24324D01*
X24124Y19595D02*
X24424D01*
X24224Y19495D02*
X24624D01*
X24324Y19395D02*
X24724D01*
X24424Y19295D02*
X24824D01*
X24524Y19195D02*
X24924D01*
X24524Y19095D02*
X24924D01*
X24624Y18995D02*
X25024D01*
X24724Y18895D02*
X25124D01*
X24824Y18795D02*
X25224D01*
X24824Y18695D02*
X25224D01*
X24924Y18595D02*
X25324D01*
X25024Y18495D02*
X25424D01*
X25024Y18395D02*
X25424D01*
X22224Y18295D02*
X24624D01*
X25124D02*
X25524D01*
X22224Y18195D02*
X24624D01*
X25124D02*
X25524D01*
X22324Y18095D02*
X24724D01*
X25224D02*
X25624D01*
X22324Y17995D02*
X24724D01*
X25224D02*
X25624D01*
X22424Y17895D02*
X24724D01*
X25324D02*
X25624D01*
X22424Y17795D02*
X24824D01*
X25324D02*
X25724D01*
X22424Y17695D02*
X24824D01*
X25324D02*
X25724D01*
X22524Y17595D02*
X24924D01*
X25424D02*
X25824D01*
X22524Y17495D02*
X24924D01*
X25424D02*
X25824D01*
X22524Y17395D02*
X24924D01*
X25524D02*
X25824D01*
X22624Y17295D02*
X25024D01*
X25524D02*
X25924D01*
X22624Y17195D02*
X25024D01*
X25524D02*
X25924D01*
X22624Y17095D02*
X25024D01*
X25524D02*
X25924D01*
X22624Y16995D02*
X25024D01*
X25624D02*
X26024D01*
X22724Y16895D02*
X25124D01*
X25624D02*
X26024D01*
X22724Y16795D02*
X25124D01*
X25624D02*
X26024D01*
X22724Y16695D02*
X25124D01*
X25624D02*
X26024D01*
X22724Y16595D02*
X25124D01*
X25724D02*
X26024D01*
X22724Y16495D02*
X25124D01*
X25724D02*
X26024D01*
X22724Y16395D02*
X25124D01*
X25724D02*
X26124D01*
X22724Y16295D02*
X25224D01*
X25724D02*
X26124D01*
X22824Y16195D02*
X25224D01*
X25724D02*
X26124D01*
X22824Y16095D02*
X25224D01*
X25724D02*
X26124D01*
X22824Y15995D02*
X25224D01*
X25824D02*
X26124D01*
X22824Y15895D02*
X25224D01*
X25824D02*
X26124D01*
X22824Y15795D02*
X25224D01*
X25824D02*
X26124D01*
X22824Y15695D02*
X25224D01*
X25824D02*
X26224D01*
X22824Y15595D02*
X25224D01*
X25824D02*
X26224D01*
X22824Y15495D02*
X25324D01*
X25824D02*
X26224D01*
X22824Y15395D02*
X25324D01*
X25824D02*
X26224D01*
X22824Y15295D02*
X25324D01*
X25824D02*
X26224D01*
X22824Y15195D02*
X25324D01*
X25824D02*
X26224D01*
X22824Y15095D02*
X25324D01*
X25824D02*
X26224D01*
X22824Y14995D02*
X25324D01*
X25824D02*
X26224D01*
X22824Y14895D02*
X25324D01*
X25824D02*
X26224D01*
X22824Y14795D02*
X25324D01*
X25824D02*
X26224D01*
X22824Y14695D02*
X25324D01*
X25824D02*
X26224D01*
X22824Y14595D02*
X25324D01*
X25824D02*
X26224D01*
X22824Y14495D02*
X25324D01*
X25824D02*
X26224D01*
X22824Y14395D02*
X25324D01*
X25824D02*
X26224D01*
X22824Y14295D02*
X25324D01*
X25824D02*
X26224D01*
X22824Y14195D02*
X25324D01*
X25824D02*
X26224D01*
X22824Y14095D02*
X25324D01*
X25824D02*
X26224D01*
X22824Y13995D02*
X25324D01*
X25824D02*
X26224D01*
X22824Y13895D02*
X25324D01*
X25824D02*
X26224D01*
X22824Y13795D02*
X25224D01*
X25824D02*
X26224D01*
X22824Y13695D02*
X25224D01*
X25824D02*
X26224D01*
X22824Y13595D02*
X25224D01*
X25824D02*
X26224D01*
X22824Y13495D02*
X25224D01*
X25824D02*
X26224D01*
X22824Y13395D02*
X25224D01*
X25824D02*
X26224D01*
X22824Y13295D02*
X25224D01*
X25824D02*
X26124D01*
X22824Y13195D02*
X25224D01*
X25824D02*
X26124D01*
X22724Y13095D02*
X25224D01*
X25824D02*
X26124D01*
X22724Y12995D02*
X25224D01*
X25724D02*
X26124D01*
X22724Y12895D02*
X25124D01*
X25724D02*
X26124D01*
X22724Y12795D02*
X25124D01*
X25724D02*
X26124D01*
X22724Y12695D02*
X25124D01*
X25724D02*
X26124D01*
X22724Y12595D02*
X25124D01*
X25724D02*
X26124D01*
X22724Y12495D02*
X25124D01*
X25724D02*
X26024D01*
X22724Y12395D02*
X25124D01*
X25624D02*
X26024D01*
X22624Y12295D02*
X25124D01*
X25624D02*
X26024D01*
X15624Y12095D02*
X17724D01*
X18224D02*
X18524D01*
X15624Y11995D02*
X17724D01*
X18224D02*
X18524D01*
X15624Y11895D02*
X17724D01*
X18224D02*
X18524D01*
X15624Y11795D02*
X17724D01*
X18224D02*
X18524D01*
X15624Y11695D02*
X17724D01*
X18224D02*
X18524D01*
X15624Y11595D02*
X17724D01*
X18224D02*
X18524D01*
X15624Y11495D02*
X17724D01*
X18224D02*
X18524D01*
X15624Y11395D02*
X17724D01*
X18224D02*
X18524D01*
X15624Y11295D02*
X17724D01*
X18224D02*
X18524D01*
X15624Y11195D02*
X17724D01*
X18224D02*
X18524D01*
X15624Y11095D02*
X17724D01*
X18224D02*
X18524D01*
X15624Y10995D02*
X17724D01*
X18224D02*
X18524D01*
X15624Y10895D02*
X17724D01*
X18224D02*
X18524D01*
X15624Y10795D02*
X17724D01*
X18224D02*
X18524D01*
X15624Y10695D02*
X17724D01*
X18224D02*
X18524D01*
X15624Y10595D02*
X17724D01*
X18224D02*
X18524D01*
X15624Y10495D02*
X17724D01*
X18224D02*
X18524D01*
X15624Y10395D02*
X17724D01*
X18224D02*
X18524D01*
X15624Y10295D02*
X17724D01*
X18224D02*
X18524D01*
X15624Y10195D02*
X17724D01*
X18224D02*
X18524D01*
X15624Y10095D02*
X17724D01*
X18224D02*
X18524D01*
X15624Y9995D02*
X17724D01*
X18224D02*
X18524D01*
X15624Y9895D02*
X17724D01*
X18224D02*
X18524D01*
X15624Y9795D02*
X17724D01*
X18224D02*
X18524D01*
X15624Y9695D02*
X17724D01*
X18224D02*
X18524D01*
X15624Y9595D02*
X17724D01*
X18224D02*
X18524D01*
X15624Y9495D02*
X17724D01*
X18224D02*
X18524D01*
X15624Y9395D02*
X17724D01*
X18224D02*
X18524D01*
X15624Y9295D02*
X17724D01*
X18224D02*
X18524D01*
X15624Y9195D02*
X17724D01*
X18224D02*
X18524D01*
X15624Y9095D02*
X17724D01*
X18224D02*
X18524D01*
X15524Y8995D02*
X17724D01*
X18224D02*
X18524D01*
X15424Y8895D02*
X17724D01*
X18224D02*
X18524D01*
X15324Y8795D02*
X17724D01*
X18224D02*
X18524D01*
X14624Y8295D02*
X21924D01*
X14524Y8195D02*
X21724D01*
X14324Y8095D02*
X21424D01*
X14224Y7995D02*
X20924D01*
X19724Y7395D02*
X22024D01*
X14624Y7295D02*
X21624D01*
X14624Y7195D02*
X21224D01*
X14724Y7095D02*
X20724D01*
X14824Y6995D02*
X19524D01*
X15424Y20095D02*
X17724D01*
X15524Y19995D02*
X17724D01*
X15624Y19895D02*
X17724D01*
X15624Y19795D02*
X17724D01*
X18724D02*
X19924D01*
X15624Y19695D02*
X17724D01*
X18224D02*
X20424D01*
X15624Y19595D02*
X17724D01*
X18224D02*
X20724D01*
X15624Y19495D02*
X17724D01*
X18224D02*
X21024D01*
X15624Y19395D02*
X17724D01*
X18224D02*
X18624D01*
X19924D02*
X21124D01*
X15624Y19295D02*
X17724D01*
X18224D02*
X18524D01*
X20424D02*
X21324D01*
X15624Y19195D02*
X17724D01*
X18224D02*
X18524D01*
X20824D02*
X21424D01*
X15624Y19095D02*
X17724D01*
X18224D02*
X18524D01*
X21024D02*
X21524D01*
X15624Y18995D02*
X17724D01*
X18224D02*
X18524D01*
X21324D02*
X21624D01*
X14224Y18895D02*
X14724D01*
X15624D02*
X17724D01*
X18224D02*
X18524D01*
X14324Y18795D02*
X14824D01*
X15624D02*
X17724D01*
X18224D02*
X18524D01*
X14324Y18695D02*
X14824D01*
X15624D02*
X17724D01*
X18224D02*
X18524D01*
X14424Y18595D02*
X14924D01*
X15624D02*
X17724D01*
X18224D02*
X18524D01*
X14524Y18495D02*
X15024D01*
X15624D02*
X17724D01*
X18224D02*
X18524D01*
X14524Y18395D02*
X15024D01*
X15624D02*
X17724D01*
X18224D02*
X18524D01*
X14624Y18295D02*
X15124D01*
X15624D02*
X17724D01*
X18224D02*
X18524D01*
X14624Y18195D02*
X15124D01*
X15624D02*
X17724D01*
X18224D02*
X18524D01*
X14724Y18095D02*
X15224D01*
X15624D02*
X17724D01*
X18224D02*
X18524D01*
X14824Y17995D02*
X15324D01*
X15624D02*
X17724D01*
X18224D02*
X18524D01*
X14824Y17895D02*
X15324D01*
X15624D02*
X17724D01*
X18224D02*
X18524D01*
X14924Y17795D02*
X15424D01*
X15624D02*
X17724D01*
X18224D02*
X18524D01*
X14924Y17695D02*
X15524D01*
X15624D02*
X17724D01*
X18224D02*
X18524D01*
X15024Y17595D02*
X15524D01*
X15624D02*
X17724D01*
X18224D02*
X18524D01*
X15124Y17495D02*
X15524D01*
X15624D02*
X17724D01*
X18224D02*
X18524D01*
X15124Y17395D02*
X17724D01*
X18224D02*
X18524D01*
X15224Y17295D02*
X17724D01*
X18224D02*
X18524D01*
X15324Y17195D02*
X17724D01*
X18224D02*
X18524D01*
X15324Y17095D02*
X17724D01*
X18224D02*
X18524D01*
X15424Y16995D02*
X17724D01*
X18224D02*
X18524D01*
X15424Y16895D02*
X17724D01*
X18224D02*
X18524D01*
X15524Y16795D02*
X17724D01*
X18224D02*
X18524D01*
X15524Y16695D02*
X17724D01*
X18224D02*
X18524D01*
X15624Y16595D02*
X17724D01*
X18224D02*
X18524D01*
X15624Y16495D02*
X17724D01*
X18224D02*
X18524D01*
X15624Y16395D02*
X17724D01*
X18224D02*
X18524D01*
X15624Y16295D02*
X17724D01*
X18224D02*
X18524D01*
X15624Y16195D02*
X17724D01*
X18224D02*
X18524D01*
X15624Y16095D02*
X17724D01*
X18224D02*
X18524D01*
X15624Y15995D02*
X17724D01*
X18224D02*
X18524D01*
X18224Y15895D02*
X18524D01*
X18224Y15795D02*
X18524D01*
X18224Y15695D02*
X18524D01*
X18224Y15595D02*
X18524D01*
X18224Y15495D02*
X18524D01*
X18224Y15395D02*
X18524D01*
X18224Y15295D02*
X18524D01*
X18224Y15195D02*
X18524D01*
X18224Y15095D02*
X18524D01*
X18224Y14995D02*
X18524D01*
X18224Y14895D02*
X18524D01*
X18224Y14795D02*
X18524D01*
X18224Y14695D02*
X18524D01*
X18224Y14595D02*
X18524D01*
X18224Y14495D02*
X18524D01*
X18224Y14395D02*
X18524D01*
X15624Y14195D02*
X18524D01*
X15624Y14095D02*
X17724D01*
X17824D02*
X18524D01*
X15624Y13995D02*
X17724D01*
X17924D02*
X18524D01*
X15624Y13895D02*
X17724D01*
X18024D02*
X18624D01*
X15624Y13795D02*
X17724D01*
X18124D02*
X18724D01*
X15624Y13295D02*
X17724D01*
X18224D02*
X18524D01*
X15624Y13195D02*
X17724D01*
X18224D02*
X18524D01*
X15624Y13095D02*
X17724D01*
X18224D02*
X18524D01*
X15624Y12995D02*
X17724D01*
X18224D02*
X18524D01*
X15624Y12895D02*
X17724D01*
X18224D02*
X18524D01*
X15624Y12795D02*
X17724D01*
X18224D02*
X18524D01*
X15624Y12695D02*
X17724D01*
X18224D02*
X18524D01*
X15624Y12595D02*
X17724D01*
X18224D02*
X18524D01*
X15624Y12495D02*
X17724D01*
X18224D02*
X18524D01*
X15624Y12395D02*
X17724D01*
X18224D02*
X18524D01*
X15624Y12295D02*
X17724D01*
X18224D02*
X18524D01*
X17624Y27095D02*
X17724D01*
X17524Y26995D02*
X17824D01*
X17324Y26895D02*
X17924D01*
X17124Y26795D02*
X17924D01*
X16924Y26695D02*
X17724D01*
X16824Y26595D02*
X17524D01*
X16624Y26495D02*
X17424D01*
X16524Y26395D02*
X17224D01*
X16324Y26295D02*
X17124D01*
X16124Y26195D02*
X16924D01*
X15924Y26095D02*
X16724D01*
X15824Y25995D02*
X16524D01*
X15624Y25895D02*
X16424D01*
X15524Y25795D02*
X16224D01*
X15424Y25695D02*
X16024D01*
X15424Y25595D02*
X15924D01*
X15324Y25495D02*
X15824D01*
X15224Y25395D02*
X15724D01*
X15124Y25295D02*
X15624D01*
X15024Y25195D02*
X15524D01*
X15024Y25095D02*
X15524D01*
X14924Y24995D02*
X15424D01*
X14824Y24895D02*
X15324D01*
X14724Y24795D02*
X15224D01*
X14724Y24695D02*
X15224D01*
X14624Y24595D02*
X15124D01*
X14524Y24495D02*
X15024D01*
X14424Y24395D02*
X14924D01*
X14424Y24295D02*
X14924D01*
X14324Y24195D02*
X14824D01*
X14224Y24095D02*
X14724D01*
X14424Y21195D02*
X20324D01*
X14524Y21095D02*
X20824D01*
X14624Y20995D02*
X21324D01*
X14724Y20895D02*
X21724D01*
X14824Y20795D02*
X21924D01*
X15324Y20295D02*
X17724D01*
X9424Y20095D02*
X13024D01*
X13524D02*
X14024D01*
X9324Y19995D02*
X13124D01*
X13624D02*
X14024D01*
X9224Y19895D02*
X10524D01*
X10724D02*
X13124D01*
X9224Y19795D02*
X10424D01*
X10724D02*
X13224D01*
X9124Y19695D02*
X10324D01*
X10824D02*
X13224D01*
X9024Y19595D02*
X10324D01*
X10724D02*
X13324D01*
X8924Y19495D02*
X10224D01*
X10624D02*
X13424D01*
X8824Y19395D02*
X10124D01*
X10624D02*
X13424D01*
X8824Y19295D02*
X10024D01*
X10524D02*
X13524D01*
X8724Y19195D02*
X9924D01*
X10424D02*
X10924D01*
X11124D02*
X13624D01*
X8624Y19095D02*
X9924D01*
X10424D02*
X10924D01*
X11224D02*
X13624D01*
X8524Y18995D02*
X9824D01*
X10324D02*
X10824D01*
X11224D02*
X13724D01*
X8524Y18895D02*
X9724D01*
X10224D02*
X10724D01*
X11324D02*
X13724D01*
X8424Y18795D02*
X9624D01*
X10124D02*
X10624D01*
X11324D02*
X13824D01*
X8324Y18695D02*
X9624D01*
X10024D02*
X10624D01*
X11424D02*
X13924D01*
X8224Y18595D02*
X9524D01*
X9924D02*
X10524D01*
X11524D02*
X13924D01*
X8124Y18495D02*
X9424D01*
X9924D02*
X10424D01*
X11524D02*
X14024D01*
X8124Y18395D02*
X9324D01*
X9824D02*
X10324D01*
X8024Y18295D02*
X9224D01*
X9724D02*
X10224D01*
X7924Y18195D02*
X9124D01*
X9724D02*
X10224D01*
X7824Y18095D02*
X9124D01*
X9624D02*
X10124D01*
X7724Y17995D02*
X9024D01*
X9524D02*
X10024D01*
X7624Y17895D02*
X8924D01*
X9424D02*
X9924D01*
X7624Y17795D02*
X8824D01*
X9424D02*
X9924D01*
X7524Y17695D02*
X8824D01*
X9324D02*
X9824D01*
X7424Y17595D02*
X8724D01*
X9224D02*
X9724D01*
X7324Y17495D02*
X8624D01*
X9124D02*
X9624D01*
X7324Y17395D02*
X8524D01*
X9024D02*
X9624D01*
X7224Y17295D02*
X8424D01*
X9024D02*
X9524D01*
X7124Y17195D02*
X8424D01*
X8924D02*
X9424D01*
X7024Y17095D02*
X8324D01*
X8824D02*
X9324D01*
X6924Y16995D02*
X8224D01*
X8724D02*
X9224D01*
X6924Y16895D02*
X8124D01*
X8624D02*
X9224D01*
X6824Y16795D02*
X8124D01*
X8624D02*
X9124D01*
X6724Y16695D02*
X8024D01*
X8524D02*
X9024D01*
X6624Y16595D02*
X7924D01*
X8424D02*
X8924D01*
X6624Y16495D02*
X7824D01*
X8324D02*
X8824D01*
X6524Y16395D02*
X7724D01*
X8324D02*
X8824D01*
X6424Y16295D02*
X7724D01*
X8224D02*
X8724D01*
X6324Y16195D02*
X7624D01*
X8124D02*
X8624D01*
X6224Y16095D02*
X7524D01*
X8024D02*
X8524D01*
X6224Y15995D02*
X7424D01*
X8024D02*
X8524D01*
X7924Y15895D02*
X8424D01*
X7824Y15795D02*
X8324D01*
X7724Y15695D02*
X8224D01*
X7724Y15595D02*
X8224D01*
X7824Y15495D02*
X8324D01*
X7924Y15395D02*
X8424D01*
X7924Y15295D02*
X8524D01*
X8024Y15195D02*
X8524D01*
X8124Y15095D02*
X8624D01*
X8224Y14995D02*
X8724D01*
X8224Y14895D02*
X8824D01*
X8324Y14795D02*
X8824D01*
X8424Y14695D02*
X8924D01*
X8524Y14595D02*
X9024D01*
X8524Y14495D02*
X9124D01*
X8624Y14395D02*
X9124D01*
X8724Y14295D02*
X9224D01*
X8824Y14195D02*
X9324D01*
X8924Y14095D02*
X9424D01*
X8924Y13995D02*
X9524D01*
X9024Y13895D02*
X9524D01*
X9124Y13795D02*
X9624D01*
X10824Y27295D02*
X11124D01*
X10724Y27195D02*
X11224D01*
X10624Y27095D02*
X11224D01*
X10524Y26995D02*
X11124D01*
X10424Y26895D02*
X11024D01*
X10324Y26795D02*
X10924D01*
X6224Y26695D02*
X9424D01*
X10224D02*
X10724D01*
X6324Y26595D02*
X9324D01*
X10124D02*
X10624D01*
X6424Y26495D02*
X9224D01*
X10024D02*
X10524D01*
X6624Y26395D02*
X9224D01*
X9924D02*
X10424D01*
X6724Y26295D02*
X9224D01*
X9824D02*
X10324D01*
X6824Y26195D02*
X9324D01*
X9824D02*
X10324D01*
X6924Y26095D02*
X9424D01*
X9824D02*
X10324D01*
X7024Y25995D02*
X9424D01*
X9924D02*
X10424D01*
X7024Y25895D02*
X9524D01*
X9924D02*
X10524D01*
X7124Y25795D02*
X9524D01*
X10024D02*
X10524D01*
X7224Y25695D02*
X9624D01*
X10124D02*
X10624D01*
X7224Y25595D02*
X9624D01*
X10124D02*
X10624D01*
X7324Y25495D02*
X9724D01*
X10224D02*
X10724D01*
X7324Y25395D02*
X9824D01*
X10324D02*
X10824D01*
X7424Y25295D02*
X9824D01*
X10324D02*
X10824D01*
X7524Y25195D02*
X9924D01*
X10424D02*
X10924D01*
X7524Y25095D02*
X10024D01*
X10424D02*
X10924D01*
X7624Y24995D02*
X10024D01*
X10524D02*
X11024D01*
X7624Y24895D02*
X10124D01*
X10624D02*
X11024D01*
X7724Y24795D02*
X10124D01*
X10624D02*
X11124D01*
X7824Y24695D02*
X10224D01*
X10724D02*
X11224D01*
X7824Y24595D02*
X10324D01*
X10824D02*
X11224D01*
X7924Y24495D02*
X10324D01*
X10824D02*
X11324D01*
X12724D02*
X14024D01*
X8024Y24395D02*
X10424D01*
X10924D02*
X11424D01*
X12724D02*
X13924D01*
X8024Y24295D02*
X10524D01*
X10924D02*
X11424D01*
X12624D02*
X13824D01*
X8124Y24195D02*
X10524D01*
X11024D02*
X11524D01*
X12524D02*
X13724D01*
X8124Y24095D02*
X10624D01*
X11124D02*
X11524D01*
X12424D02*
X13724D01*
X8224Y23995D02*
X10624D01*
X11124D02*
X11624D01*
X12324D02*
X13624D01*
X8324Y23895D02*
X10724D01*
X11224D02*
X11724D01*
X12324D02*
X13524D01*
X8324Y23795D02*
X10824D01*
X11324D02*
X11724D01*
X12224D02*
X13424D01*
X8424Y23695D02*
X10824D01*
X11324D02*
X11824D01*
X12124D02*
X13324D01*
X8424Y23595D02*
X10924D01*
X11424D02*
X11824D01*
X12024D02*
X13324D01*
X8524Y23495D02*
X10924D01*
X11424D02*
X13224D01*
X8624Y23395D02*
X11024D01*
X11524D02*
X13124D01*
X8624Y23295D02*
X11124D01*
X11624D02*
X13024D01*
X8724Y23195D02*
X11124D01*
X11624D02*
X12924D01*
X13524D02*
X14024D01*
X8724Y23095D02*
X11224D01*
X11624D02*
X12924D01*
X13424D02*
X13924D01*
X8824Y22995D02*
X11324D01*
X11624D02*
X12824D01*
X13324D02*
X13824D01*
X8924Y22895D02*
X11324D01*
X11524D02*
X12724D01*
X13324D02*
X13824D01*
X8924Y22795D02*
X12624D01*
X13224D02*
X13724D01*
X9024Y22695D02*
X12624D01*
X13124D02*
X13624D01*
X9024Y22595D02*
X12524D01*
X13024D02*
X13524D01*
X9124Y22495D02*
X12424D01*
X13024D02*
X13524D01*
X9224Y22395D02*
X12324D01*
X12924D02*
X13424D01*
X9224Y22295D02*
X12324D01*
X12824D02*
X13324D01*
X9324Y22195D02*
X12224D01*
X12724D02*
X13224D01*
X9424Y22095D02*
X12124D01*
X12724D02*
X13224D01*
X9424Y21995D02*
X12024D01*
X12624D02*
X13124D01*
X9524Y21895D02*
X11924D01*
X12524D02*
X13024D01*
X9524Y21795D02*
X12024D01*
X12524D02*
X13024D01*
X9624Y21695D02*
X12024D01*
X12524D02*
X13024D01*
X9724Y21595D02*
X12124D01*
X12624D02*
X13124D01*
X9724Y21495D02*
X12224D01*
X12724D02*
X13124D01*
X9824Y21395D02*
X12224D01*
X12724D02*
X13224D01*
X9824Y21295D02*
X12324D01*
X12724D02*
X13324D01*
X9924Y21195D02*
X12324D01*
X12824D02*
X13324D01*
X10024Y21095D02*
X12424D01*
X12924D02*
X13424D01*
X10024Y20995D02*
X12524D01*
X12924D02*
X13424D01*
X10024Y20895D02*
X12524D01*
X13024D02*
X13524D01*
X9924Y20795D02*
X12624D01*
X13124D02*
X13624D01*
X9924Y20695D02*
X12724D01*
X13124D02*
X13624D01*
X9824Y20595D02*
X12724D01*
X13224D02*
X13724D01*
X9724Y20495D02*
X12824D01*
X13224D02*
X13724D01*
X9624Y20395D02*
X12824D01*
X13324D02*
X13824D01*
X9524Y20295D02*
X12924D01*
X13424D02*
X13924D01*
X22624Y12195D02*
X25024D01*
X25624D02*
X26024D01*
X15624D02*
X17724D01*
X18224D02*
X18524D01*
X15424Y20195D02*
X17724D01*
X9524D02*
X12924D01*
X13424D02*
X13924D01*
X22124Y10795D02*
X24624D01*
X22124Y10695D02*
X24524D01*
X22024Y10595D02*
X24524D01*
X22024Y10495D02*
X24424D01*
X21924Y10395D02*
X24324D01*
X21824Y10295D02*
X24324D01*
X21824Y10195D02*
X24224D01*
X21724Y10095D02*
X24224D01*
X21724Y9995D02*
X24124D01*
X21624Y9895D02*
X24024D01*
X21524Y9795D02*
X23924D01*
X21424Y9695D02*
X23924D01*
X21324Y9595D02*
X23824D01*
X21224Y9495D02*
X23724D01*
X21024Y9395D02*
X23624D01*
X20924Y9295D02*
X23524D01*
X20824Y9195D02*
X23424D01*
X20624Y9095D02*
X23324D01*
X20424Y8995D02*
X23224D01*
X20124Y8895D02*
X23024D01*
X19624Y8795D02*
X22924D01*
X15124Y8695D02*
X22724D01*
X15024Y8595D02*
X22624D01*
X14924Y8495D02*
X22424D01*
X14724Y8395D02*
X22224D01*
X14124Y7895D02*
X20224D01*
X21924Y7795D02*
X23024D01*
X21624Y7695D02*
X22824D01*
X21124Y7595D02*
X22624D01*
X20624Y7495D02*
X22324D01*
X20024Y20095D02*
X23224D01*
X20324Y19995D02*
X23324D01*
X13624Y19895D02*
X14124D01*
X20624D02*
X23424D01*
X13724Y19795D02*
X14224D01*
X20824D02*
X23524D01*
X13724Y19695D02*
X14224D01*
X21024D02*
X23624D01*
X13824Y19595D02*
X14324D01*
X21124D02*
X23724D01*
X13924Y19495D02*
X14424D01*
X21324D02*
X23824D01*
X13924Y19395D02*
X14424D01*
X21424D02*
X23924D01*
X14024Y19295D02*
X14524D01*
X21524D02*
X24024D01*
X14024Y19195D02*
X14524D01*
X21624D02*
X24024D01*
X14124Y19095D02*
X14624D01*
X21724D02*
X24124D01*
X14124Y18995D02*
X14624D01*
X21824D02*
X24224D01*
X21824Y18895D02*
X24224D01*
X21924Y18795D02*
X24324D01*
X22024Y18695D02*
X24424D01*
X22024Y18595D02*
X24424D01*
X22124Y18495D02*
X24524D01*
X11624Y18395D02*
X14124D01*
X22124D02*
X24524D01*
X11724Y18295D02*
X14124D01*
X11724Y18195D02*
X14224D01*
X11724Y18095D02*
X14224D01*
X11824Y17995D02*
X14324D01*
X11924Y17895D02*
X14324D01*
X11924Y17795D02*
X14424D01*
X12024Y17695D02*
X14524D01*
X12124Y17595D02*
X14524D01*
X12124Y17495D02*
X14624D01*
X12224Y17395D02*
X14624D01*
X12224Y17295D02*
X14724D01*
X12324Y17195D02*
X14824D01*
X12424Y17095D02*
X14824D01*
X12424Y16995D02*
X14924D01*
X12524Y16895D02*
X15024D01*
X12624Y16795D02*
X15024D01*
X12624Y16695D02*
X15124D01*
X12724Y16595D02*
X15124D01*
X12724Y16495D02*
X15224D01*
X12824Y16395D02*
X15324D01*
X12924Y16295D02*
X15324D01*
X12924Y16195D02*
X15424D01*
X13024Y16095D02*
X15524D01*
X13124Y15995D02*
X15524D01*
X13124Y15895D02*
X17724D01*
X13224Y15795D02*
X17724D01*
X13224Y15695D02*
X17724D01*
X13324Y15595D02*
X17724D01*
X13324Y15495D02*
X17724D01*
X13124Y15395D02*
X17724D01*
X13024Y15295D02*
X17724D01*
X12924Y15195D02*
X17724D01*
X12824Y15095D02*
X17724D01*
X12724Y14995D02*
X17724D01*
X12624Y14895D02*
X17724D01*
X12524Y14795D02*
X17724D01*
X12424Y14695D02*
X17824D01*
X12324Y14595D02*
X17924D01*
X12224Y14495D02*
X18024D01*
X12124Y14395D02*
X18124D01*
X12024Y14295D02*
X18524D01*
X12324Y13695D02*
X18824D01*
X12324Y13595D02*
X18924D01*
X12424Y13495D02*
X19024D01*
X12524Y13395D02*
X19024D01*
X12824Y27595D02*
X17524D01*
X12924Y27495D02*
X17424D01*
X13024Y27395D02*
X17224D01*
X13124Y27295D02*
X17124D01*
X13224Y27195D02*
X16924D01*
X13324Y27095D02*
X16824D01*
X13424Y26995D02*
X16624D01*
X13524Y26895D02*
X16524D01*
X13624Y26795D02*
X16324D01*
X13724Y26695D02*
X16124D01*
X13824Y26595D02*
X16024D01*
X13824Y26495D02*
X15924D01*
X13924Y26395D02*
X15724D01*
X14024Y26295D02*
X15524D01*
X14024Y26195D02*
X15424D01*
X14024Y26095D02*
X15224D01*
X13924Y25995D02*
X15124D01*
X13824Y25895D02*
X15124D01*
X13724Y25795D02*
X15024D01*
X13724Y25695D02*
X14924D01*
X13624Y25595D02*
X14824D01*
X13524Y25495D02*
X14824D01*
X13424Y25395D02*
X14724D01*
X13424Y25295D02*
X14624D01*
X13324Y25195D02*
X14524D01*
X13224Y25095D02*
X14424D01*
X13124Y24995D02*
X14424D01*
X13024Y24895D02*
X14324D01*
X13024Y24795D02*
X14224D01*
X12924Y24695D02*
X14124D01*
X12824Y24595D02*
X14124D01*
Y23995D02*
X14624D01*
X14024Y23895D02*
X14524D01*
X14024Y23795D02*
X14524D01*
X13924Y23695D02*
X14424D01*
X13824Y23595D02*
X14324D01*
X13724Y23495D02*
X14224D01*
X13624Y23395D02*
X14124D01*
X13624Y23295D02*
X14124D01*
X14924Y20695D02*
X22224D01*
X15024Y20595D02*
X22424D01*
X15124Y20495D02*
X22624D01*
X15224Y20395D02*
X22824D01*
X18824Y20295D02*
X22924D01*
X6124Y15895D02*
X7324D01*
X5924Y15795D02*
X7324D01*
X5824Y15695D02*
X7424D01*
X5624Y15595D02*
X7524D01*
X5524Y15495D02*
X7524D01*
X5324Y15395D02*
X7724D01*
X5124Y15295D02*
X7724D01*
X5024Y15195D02*
X7824D01*
X4924Y15095D02*
X7924D01*
X4724Y14995D02*
X8024D01*
X4524Y14895D02*
X8124D01*
X4424Y14795D02*
X8124D01*
X4224Y14695D02*
X8224D01*
X4124Y14595D02*
X8324D01*
X3924Y14495D02*
X8424D01*
X3924Y13695D02*
X9724D01*
X3924Y13595D02*
X9724D01*
X4024Y13495D02*
X9824D01*
X4024Y13395D02*
X9924D01*
X5424Y27195D02*
X10024D01*
X5624Y27095D02*
X9924D01*
X5724Y26995D02*
X9824D01*
X5824Y26895D02*
X9724D01*
X6024Y26795D02*
X9624D01*
X19624Y20195D02*
X23024D01*
X4924Y27595D02*
X10524D01*
X5024Y27495D02*
X10424D01*
X5124Y27395D02*
X10324D01*
X5324Y27295D02*
X10124D01*
D15*
X3724Y14395D02*
X8524D01*
X3624Y14295D02*
X8524D01*
D16*
X47000Y37500D02*
X52000D01*
X38000D02*
X42856D01*
X38000Y29500D02*
X43000D01*
X47000D02*
X52000D01*
X47000Y82500D02*
X52000D01*
X38000D02*
X42856D01*
X38000Y74500D02*
X43000D01*
X47000D02*
X52000D01*
D17*
X130000Y69500D02*
X144500D01*
Y52500D02*
Y69500D01*
X130000Y52500D02*
X144500D01*
X130000D02*
Y69500D01*
D18*
X136500Y59500D02*
Y62000D01*
X137000Y59500D02*
Y62000D01*
Y59500D02*
X137500D01*
Y62000D01*
X137000D02*
X137500D01*
X138000Y59500D02*
Y62000D01*
X134000Y60750D02*
Y62500D01*
X140500Y59500D02*
Y60750D01*
X134000D02*
X136500D01*
X138000D02*
X140500D01*
D19*
X51299Y4799D02*
X50800Y5299D01*
X49800D01*
X49300Y4799D01*
Y2800D01*
X49800Y2300D01*
X50800D01*
X51299Y2800D01*
X52299Y5299D02*
Y2300D01*
X54298D01*
X55298Y5299D02*
Y2300D01*
Y3300D01*
X57297Y5299D01*
X55798Y3799D01*
X57297Y2300D01*
X39300Y5299D02*
Y2300D01*
X40799D01*
X41299Y2800D01*
Y4799D01*
X40799Y5299D01*
X39300D01*
X42299D02*
X43299D01*
X42799D01*
Y2300D01*
X42299D01*
X43299D01*
X46298Y5299D02*
X45298D01*
X44798Y4799D01*
Y2800D01*
X45298Y2300D01*
X46298D01*
X46798Y2800D01*
Y4799D01*
X46298Y5299D01*
X33799Y4799D02*
X33299Y5299D01*
X32300D01*
X31800Y4799D01*
Y2800D01*
X32300Y2300D01*
X33299D01*
X33799Y2800D01*
Y3799D01*
X32800D01*
X60800Y4799D02*
X61300Y5299D01*
X62300D01*
X62799Y4799D01*
Y4299D01*
X62300Y3799D01*
X61800D01*
X62300D01*
X62799Y3300D01*
Y2800D01*
X62300Y2300D01*
X61300D01*
X60800Y2800D01*
X63799Y5299D02*
Y3300D01*
X64799Y2300D01*
X65798Y3300D01*
Y5299D01*
X66798Y4799D02*
X67298Y5299D01*
X68298D01*
X68797Y4799D01*
Y4299D01*
X68298Y3799D01*
X67798D01*
X68298D01*
X68797Y3300D01*
Y2800D01*
X68298Y2300D01*
X67298D01*
X66798Y2800D01*
X50502Y39501D02*
Y43499D01*
X52501D01*
X53167Y42833D01*
Y41500D01*
X52501Y40834D01*
X50502D01*
X51834D02*
X53167Y39501D01*
X54500D02*
X55833D01*
X55167D01*
Y43499D01*
X54500Y42833D01*
X57833D02*
X58499Y43499D01*
X59832D01*
X60498Y42833D01*
Y42166D01*
X59832Y41500D01*
X59166D01*
X59832D01*
X60498Y40834D01*
Y40167D01*
X59832Y39501D01*
X58499D01*
X57833Y40167D01*
X146834Y62499D02*
X149500Y58501D01*
Y62499D02*
X146834Y58501D01*
X150833D02*
X152166D01*
X151499D01*
Y62499D01*
X150833Y61833D01*
X2335Y90999D02*
Y87667D01*
X3002Y87001D01*
X4335D01*
X5001Y87667D01*
Y90999D01*
X9000Y90333D02*
X8333Y90999D01*
X7001D01*
X6334Y90333D01*
Y89666D01*
X7001Y89000D01*
X8333D01*
X9000Y88334D01*
Y87667D01*
X8333Y87001D01*
X7001D01*
X6334Y87667D01*
X10333Y90999D02*
Y87001D01*
X12332D01*
X12999Y87667D01*
Y88334D01*
X12332Y89000D01*
X10333D01*
X12332D01*
X12999Y89666D01*
Y90333D01*
X12332Y90999D01*
X10333D01*
X14332Y87001D02*
X15664D01*
X14998D01*
Y90999D01*
X14332Y90333D01*
X55668Y35499D02*
Y32167D01*
X56334Y31501D01*
X57667D01*
X58334Y32167D01*
Y35499D01*
X61666Y31501D02*
Y35499D01*
X59667Y33500D01*
X62332D01*
X56168Y80499D02*
Y77167D01*
X56834Y76501D01*
X58167D01*
X58834Y77167D01*
Y80499D01*
X60167Y79833D02*
X60833Y80499D01*
X62166D01*
X62832Y79833D01*
Y79166D01*
X62166Y78500D01*
X61499D01*
X62166D01*
X62832Y77834D01*
Y77167D01*
X62166Y76501D01*
X60833D01*
X60167Y77167D01*
X64168Y113999D02*
Y110667D01*
X64834Y110001D01*
X66167D01*
X66834Y110667D01*
Y113999D01*
X70832Y110001D02*
X68167D01*
X70832Y112666D01*
Y113333D01*
X70166Y113999D01*
X68833D01*
X68167Y113333D01*
X116834Y47999D02*
Y44667D01*
X117501Y44001D01*
X118833D01*
X119500Y44667D01*
Y47999D01*
X120833Y44001D02*
X122166D01*
X121499D01*
Y47999D01*
X120833Y47333D01*
X73001Y80998D02*
X76999D01*
Y78999D01*
X76333Y78333D01*
X75000D01*
X74334Y78999D01*
Y80998D01*
Y79665D02*
X73001Y78333D01*
Y77000D02*
Y75667D01*
Y76333D01*
X76999D01*
X76333Y77000D01*
X73001Y71002D02*
Y73667D01*
X75666Y71002D01*
X76333D01*
X76999Y71668D01*
Y73001D01*
X76333Y73667D01*
X102499Y103668D02*
X98501D01*
Y105667D01*
X99167Y106334D01*
X100500D01*
X101166Y105667D01*
Y103668D01*
Y105001D02*
X102499Y106334D01*
Y107667D02*
Y109000D01*
Y108333D01*
X98501D01*
X99167Y107667D01*
X102499Y110999D02*
Y112332D01*
Y111665D01*
X98501D01*
X99167Y110999D01*
X123499Y103752D02*
X119501D01*
Y105751D01*
X120167Y106417D01*
X121500D01*
X122167Y105751D01*
Y103752D01*
Y105085D02*
X123499Y106417D01*
Y107750D02*
Y109083D01*
Y108417D01*
X119501D01*
X120167Y107750D01*
Y111083D02*
X119501Y111749D01*
Y113082D01*
X120167Y113748D01*
X122833D01*
X123499Y113082D01*
Y111749D01*
X122833Y111083D01*
X120167D01*
X50668Y60501D02*
Y64499D01*
X52667D01*
X53334Y63833D01*
Y62500D01*
X52667Y61834D01*
X50668D01*
X52001D02*
X53334Y60501D01*
X54667Y61167D02*
X55333Y60501D01*
X56666D01*
X57332Y61167D01*
Y63833D01*
X56666Y64499D01*
X55333D01*
X54667Y63833D01*
Y63166D01*
X55333Y62500D01*
X57332D01*
X50668Y53501D02*
Y57499D01*
X52667D01*
X53334Y56833D01*
Y55500D01*
X52667Y54834D01*
X50668D01*
X52001D02*
X53334Y53501D01*
X54667Y56833D02*
X55333Y57499D01*
X56666D01*
X57332Y56833D01*
Y56166D01*
X56666Y55500D01*
X57332Y54834D01*
Y54167D01*
X56666Y53501D01*
X55333D01*
X54667Y54167D01*
Y54834D01*
X55333Y55500D01*
X54667Y56166D01*
Y56833D01*
X55333Y55500D02*
X56666D01*
X116499Y103918D02*
X112501D01*
Y105917D01*
X113167Y106583D01*
X114500D01*
X115166Y105917D01*
Y103918D01*
Y105251D02*
X116499Y106583D01*
X112501Y107916D02*
Y110582D01*
X113167D01*
X115833Y107916D01*
X116499D01*
X144168Y85251D02*
Y89249D01*
X146167D01*
X146834Y88583D01*
Y87250D01*
X146167Y86584D01*
X144168D01*
X145501D02*
X146834Y85251D01*
X150832Y89249D02*
X149499Y88583D01*
X148167Y87250D01*
Y85917D01*
X148833Y85251D01*
X150166D01*
X150832Y85917D01*
Y86584D01*
X150166Y87250D01*
X148167D01*
X106999Y14168D02*
X103001D01*
Y16167D01*
X103667Y16834D01*
X105000D01*
X105666Y16167D01*
Y14168D01*
Y15501D02*
X106999Y16834D01*
X103001Y20832D02*
Y18167D01*
X105000D01*
X104333Y19499D01*
Y20166D01*
X105000Y20832D01*
X106333D01*
X106999Y20166D01*
Y18833D01*
X106333Y18167D01*
X144168Y39501D02*
Y43499D01*
X146167D01*
X146834Y42833D01*
Y41500D01*
X146167Y40834D01*
X144168D01*
X145501D02*
X146834Y39501D01*
X150166D02*
Y43499D01*
X148167Y41500D01*
X150832D01*
X64999Y13668D02*
X61001D01*
Y15667D01*
X61667Y16333D01*
X63000D01*
X63666Y15667D01*
Y13668D01*
Y15001D02*
X64999Y16333D01*
X61667Y17666D02*
X61001Y18333D01*
Y19666D01*
X61667Y20332D01*
X62334D01*
X63000Y19666D01*
Y18999D01*
Y19666D01*
X63666Y20332D01*
X64333D01*
X64999Y19666D01*
Y18333D01*
X64333Y17666D01*
X78999Y13168D02*
X75001D01*
Y15167D01*
X75667Y15834D01*
X77000D01*
X77666Y15167D01*
Y13168D01*
Y14501D02*
X78999Y15834D01*
Y19832D02*
Y17166D01*
X76334Y19832D01*
X75667D01*
X75001Y19166D01*
Y17833D01*
X75667Y17166D01*
X92999Y14334D02*
X89001D01*
Y16333D01*
X89667Y17000D01*
X91000D01*
X91666Y16333D01*
Y14334D01*
Y15667D02*
X92999Y17000D01*
Y18333D02*
Y19666D01*
Y18999D01*
X89001D01*
X89667Y18333D01*
X71999Y8668D02*
X68001D01*
Y10668D01*
X68667Y11334D01*
X70000D01*
X70666Y10668D01*
Y8668D01*
X68001Y12667D02*
X71999D01*
X70666Y14000D01*
X71999Y15333D01*
X68001D01*
X71999Y16666D02*
X68001D01*
Y18665D01*
X68667Y19332D01*
X70000D01*
X70666Y18665D01*
Y16666D01*
Y17999D02*
X71999Y19332D01*
X82667Y11334D02*
X82001Y10668D01*
Y9335D01*
X82667Y8668D01*
X85333D01*
X85999Y9335D01*
Y10668D01*
X85333Y11334D01*
X82001Y14667D02*
Y13334D01*
X82667Y12667D01*
X85333D01*
X85999Y13334D01*
Y14667D01*
X85333Y15333D01*
X82667D01*
X82001Y14667D01*
X85999Y16666D02*
X82001D01*
X83333Y17999D01*
X82001Y19332D01*
X85999D01*
X96001Y8668D02*
X99999D01*
Y10668D01*
X99333Y11334D01*
X96667D01*
X96001Y10668D01*
Y8668D01*
X99999Y12667D02*
X97334D01*
X96001Y14000D01*
X97334Y15333D01*
X99999D01*
X98000D01*
Y12667D01*
X99999Y16666D02*
X96001D01*
Y18665D01*
X96667Y19332D01*
X98000D01*
X98666Y18665D01*
Y16666D01*
X128835Y103999D02*
Y100001D01*
Y101334D01*
X131501Y103999D01*
X129502Y102000D01*
X131501Y100001D01*
X135500Y103999D02*
X132834D01*
Y100001D01*
X135500D01*
X132834Y102000D02*
X134167D01*
X136833Y103999D02*
Y103333D01*
X138166Y102000D01*
X139499Y103333D01*
Y103999D01*
X138166Y102000D02*
Y100001D01*
X140832D02*
X142165D01*
X141498D01*
Y103999D01*
X140832Y103333D01*
X140333Y21999D02*
X139001D01*
X139667D01*
Y18667D01*
X139001Y18001D01*
X138334D01*
X137668Y18667D01*
X143666Y18001D02*
Y21999D01*
X141666Y20000D01*
X144332D01*
X149834Y103499D02*
X148501D01*
X149167D01*
Y100167D01*
X148501Y99501D01*
X147834D01*
X147168Y100167D01*
X151166Y102833D02*
X151833Y103499D01*
X153166D01*
X153832Y102833D01*
Y102166D01*
X153166Y101500D01*
X152499D01*
X153166D01*
X153832Y100834D01*
Y100167D01*
X153166Y99501D01*
X151833D01*
X151166Y100167D01*
X149501Y28834D02*
Y27501D01*
Y28167D01*
X152833D01*
X153499Y27501D01*
Y26834D01*
X152833Y26168D01*
X153499Y32832D02*
Y30167D01*
X150833Y32832D01*
X150167D01*
X149501Y32166D01*
Y30833D01*
X150167Y30167D01*
X34066Y18199D02*
X32733D01*
X33399D01*
Y14866D01*
X32733Y14200D01*
X32066D01*
X31400Y14866D01*
X35399Y14200D02*
X36732D01*
X36065D01*
Y18199D01*
X35399Y17532D01*
X28834Y22499D02*
Y18501D01*
X30834D01*
X31500Y19167D01*
Y21833D01*
X30834Y22499D01*
X28834D01*
X32833Y18501D02*
X34166D01*
X33499D01*
Y22499D01*
X32833Y21833D01*
X21167Y106167D02*
X20501Y105501D01*
Y104168D01*
X21167Y103502D01*
X23833D01*
X24499Y104168D01*
Y105501D01*
X23833Y106167D01*
X24499Y107500D02*
Y108833D01*
Y108167D01*
X20501D01*
X21167Y107500D01*
X20501Y113498D02*
Y110833D01*
X22500D01*
X21834Y112165D01*
Y112832D01*
X22500Y113498D01*
X23833D01*
X24499Y112832D01*
Y111499D01*
X23833Y110833D01*
X28167Y106667D02*
X27501Y106001D01*
Y104668D01*
X28167Y104002D01*
X30833D01*
X31499Y104668D01*
Y106001D01*
X30833Y106667D01*
X31499Y108000D02*
Y109333D01*
Y108667D01*
X27501D01*
X28167Y108000D01*
X31499Y113332D02*
X27501D01*
X29500Y111333D01*
Y113998D01*
X85167Y106167D02*
X84501Y105501D01*
Y104168D01*
X85167Y103502D01*
X87833D01*
X88499Y104168D01*
Y105501D01*
X87833Y106167D01*
X88499Y107500D02*
Y108833D01*
Y108167D01*
X84501D01*
X85167Y107500D01*
Y110833D02*
X84501Y111499D01*
Y112832D01*
X85167Y113498D01*
X85834D01*
X86500Y112832D01*
Y112165D01*
Y112832D01*
X87166Y113498D01*
X87833D01*
X88499Y112832D01*
Y111499D01*
X87833Y110833D01*
X77667Y106167D02*
X77001Y105501D01*
Y104168D01*
X77667Y103502D01*
X80333D01*
X80999Y104168D01*
Y105501D01*
X80333Y106167D01*
X80999Y107500D02*
Y108833D01*
Y108167D01*
X77001D01*
X77667Y107500D01*
X80999Y113498D02*
Y110833D01*
X78334Y113498D01*
X77667D01*
X77001Y112832D01*
Y111499D01*
X77667Y110833D01*
X106167Y106334D02*
X105501Y105667D01*
Y104334D01*
X106167Y103668D01*
X108833D01*
X109499Y104334D01*
Y105667D01*
X108833Y106334D01*
X109499Y107667D02*
Y109000D01*
Y108333D01*
X105501D01*
X106167Y107667D01*
X109499Y110999D02*
Y112332D01*
Y111665D01*
X105501D01*
X106167Y110999D01*
X92167Y106167D02*
X91501Y105501D01*
Y104168D01*
X92167Y103502D01*
X94833D01*
X95499Y104168D01*
Y105501D01*
X94833Y106167D01*
X95499Y107500D02*
Y108833D01*
Y108167D01*
X91501D01*
X92167Y107500D01*
Y110833D02*
X91501Y111499D01*
Y112832D01*
X92167Y113498D01*
X94833D01*
X95499Y112832D01*
Y111499D01*
X94833Y110833D01*
X92167D01*
X53302Y49833D02*
X52636Y50499D01*
X51303D01*
X50636Y49833D01*
Y47167D01*
X51303Y46501D01*
X52636D01*
X53302Y47167D01*
X54635D02*
X55301Y46501D01*
X56634D01*
X57301Y47167D01*
Y49833D01*
X56634Y50499D01*
X55301D01*
X54635Y49833D01*
Y49166D01*
X55301Y48500D01*
X57301D01*
X53334Y70833D02*
X52667Y71499D01*
X51334D01*
X50668Y70833D01*
Y68167D01*
X51334Y67501D01*
X52667D01*
X53334Y68167D01*
X54667Y70833D02*
X55333Y71499D01*
X56666D01*
X57332Y70833D01*
Y70166D01*
X56666Y69500D01*
X57332Y68834D01*
Y68167D01*
X56666Y67501D01*
X55333D01*
X54667Y68167D01*
Y68834D01*
X55333Y69500D01*
X54667Y70166D01*
Y70833D01*
X55333Y69500D02*
X56666D01*
X146834Y81583D02*
X146167Y82249D01*
X144834D01*
X144168Y81583D01*
Y78917D01*
X144834Y78251D01*
X146167D01*
X146834Y78917D01*
X148167Y82249D02*
X150832D01*
Y81583D01*
X148167Y78917D01*
Y78251D01*
X76833Y51166D02*
X77499Y51833D01*
Y53166D01*
X76833Y53832D01*
X74167D01*
X73501Y53166D01*
Y51833D01*
X74167Y51166D01*
X77499Y47168D02*
X76833Y48501D01*
X75500Y49834D01*
X74167D01*
X73501Y49167D01*
Y47834D01*
X74167Y47168D01*
X74834D01*
X75500Y47834D01*
Y49834D01*
X146877Y74865D02*
X146210Y75531D01*
X144878D01*
X144211Y74865D01*
Y72199D01*
X144878Y71532D01*
X146210D01*
X146877Y72199D01*
X150876Y75531D02*
X148210D01*
Y73532D01*
X149543Y74198D01*
X150209D01*
X150876Y73532D01*
Y72199D01*
X150209Y71532D01*
X148876D01*
X148210Y72199D01*
X147083Y95583D02*
X146417Y96249D01*
X145084D01*
X144418Y95583D01*
Y92917D01*
X145084Y92251D01*
X146417D01*
X147083Y92917D01*
X150416Y92251D02*
Y96249D01*
X148416Y94250D01*
X151082D01*
X146834Y49833D02*
X146167Y50499D01*
X144834D01*
X144168Y49833D01*
Y47167D01*
X144834Y46501D01*
X146167D01*
X146834Y47167D01*
X148167Y49833D02*
X148833Y50499D01*
X150166D01*
X150832Y49833D01*
Y49166D01*
X150166Y48500D01*
X149499D01*
X150166D01*
X150832Y47834D01*
Y47167D01*
X150166Y46501D01*
X148833D01*
X148167Y47167D01*
X110667Y16834D02*
X110001Y16167D01*
Y14834D01*
X110667Y14168D01*
X113333D01*
X113999Y14834D01*
Y16167D01*
X113333Y16834D01*
X113999Y20832D02*
Y18167D01*
X111334Y20832D01*
X110667D01*
X110001Y20166D01*
Y18833D01*
X110667Y18167D01*
X117667Y18500D02*
X117001Y17833D01*
Y16501D01*
X117667Y15834D01*
X120333D01*
X120999Y16501D01*
Y17833D01*
X120333Y18500D01*
X120999Y19833D02*
Y21166D01*
Y20499D01*
X117001D01*
X117667Y19833D01*
D20*
X98000Y21815D02*
D03*
X84000D02*
D03*
X70000D02*
D03*
M02*
