G04*
G04 #@! TF.GenerationSoftware,Altium Limited,Altium Designer,21.2.2 (38)*
G04*
G04 Layer_Color=255*
%FSLAX25Y25*%
%MOIN*%
G70*
G04*
G04 #@! TF.SameCoordinates,90EED6A2-F189-4C83-9C70-3762F5BC3ACE*
G04*
G04*
G04 #@! TF.FilePolarity,Positive*
G04*
G01*
G75*
%ADD21R,0.03661X0.03858*%
%ADD22R,0.02756X0.02362*%
%ADD23R,0.02756X0.04331*%
%ADD24R,0.03858X0.03661*%
%ADD25R,0.09055X0.14961*%
%ADD26R,0.07874X0.04724*%
%ADD27R,0.05256X0.05906*%
%ADD28R,0.03543X0.03150*%
%ADD29R,0.03150X0.03150*%
%ADD30R,0.04331X0.05118*%
%ADD31O,0.05906X0.01063*%
%ADD32O,0.01063X0.05906*%
%ADD33R,0.07874X0.08583*%
%ADD34R,0.04528X0.02362*%
%ADD35R,0.04528X0.01181*%
G04:AMPARAMS|DCode=36|XSize=40mil|YSize=40mil|CornerRadius=20mil|HoleSize=0mil|Usage=FLASHONLY|Rotation=0.000|XOffset=0mil|YOffset=0mil|HoleType=Round|Shape=RoundedRectangle|*
%AMROUNDEDRECTD36*
21,1,0.04000,0.00000,0,0,0.0*
21,1,0.00000,0.04000,0,0,0.0*
1,1,0.04000,0.00000,0.00000*
1,1,0.04000,0.00000,0.00000*
1,1,0.04000,0.00000,0.00000*
1,1,0.04000,0.00000,0.00000*
%
%ADD36ROUNDEDRECTD36*%
%ADD63R,0.05906X0.05906*%
%ADD64C,0.05906*%
%ADD65R,0.05906X0.05906*%
%ADD66C,0.02165*%
%ADD67C,0.02559*%
D21*
X45531Y41500D02*
D03*
X39469D02*
D03*
X45531Y48500D02*
D03*
X39469D02*
D03*
X45531Y69500D02*
D03*
X39469D02*
D03*
X39469Y62500D02*
D03*
X45531D02*
D03*
X39469Y55500D02*
D03*
X45531D02*
D03*
X139032Y87250D02*
D03*
X132968D02*
D03*
X132968Y80250D02*
D03*
X139032D02*
D03*
X139281Y94250D02*
D03*
X133219D02*
D03*
X133012Y48532D02*
D03*
X139075D02*
D03*
X133012Y73532D02*
D03*
X139075D02*
D03*
X132968Y41500D02*
D03*
X139032D02*
D03*
D22*
X46830Y24240D02*
D03*
Y16760D02*
D03*
X38169D02*
D03*
D23*
Y23453D02*
D03*
D24*
X68000Y53531D02*
D03*
Y47469D02*
D03*
X86500Y92468D02*
D03*
Y98531D02*
D03*
X79500Y92468D02*
D03*
Y98531D02*
D03*
X29500Y92469D02*
D03*
Y98532D02*
D03*
X22500Y92469D02*
D03*
Y98532D02*
D03*
X98000Y32032D02*
D03*
Y25969D02*
D03*
X84000Y32032D02*
D03*
Y25969D02*
D03*
X70000Y32032D02*
D03*
Y25969D02*
D03*
X91000Y32032D02*
D03*
Y25969D02*
D03*
X77000Y32032D02*
D03*
Y25969D02*
D03*
X63000Y25969D02*
D03*
Y32032D02*
D03*
X105000Y25969D02*
D03*
Y32032D02*
D03*
X112000Y25969D02*
D03*
Y32032D02*
D03*
X68000Y72969D02*
D03*
Y79031D02*
D03*
X93500Y92469D02*
D03*
Y98532D02*
D03*
X100500Y98532D02*
D03*
Y92469D02*
D03*
X107500Y92469D02*
D03*
Y98532D02*
D03*
X114500Y98782D02*
D03*
Y92718D02*
D03*
X121500Y92718D02*
D03*
Y98782D02*
D03*
X119000Y25969D02*
D03*
Y32032D02*
D03*
D25*
X66500Y99500D02*
D03*
D26*
X41500D02*
D03*
Y90445D02*
D03*
Y108555D02*
D03*
D27*
X49498Y33500D02*
D03*
X40502D02*
D03*
X49498Y78500D02*
D03*
X40502D02*
D03*
D28*
X129400Y114300D02*
D03*
X147510D02*
D03*
D29*
X145089Y107449D02*
D03*
X131900D02*
D03*
D30*
X133300Y65800D02*
D03*
X141200D02*
D03*
X133300Y56100D02*
D03*
X141200D02*
D03*
D31*
X116747Y52941D02*
D03*
Y54911D02*
D03*
Y56878D02*
D03*
Y58848D02*
D03*
Y60815D02*
D03*
Y62785D02*
D03*
Y64752D02*
D03*
Y66721D02*
D03*
Y68689D02*
D03*
Y70658D02*
D03*
Y72626D02*
D03*
Y74595D02*
D03*
X83284D02*
D03*
Y72626D02*
D03*
Y70658D02*
D03*
Y68689D02*
D03*
Y66721D02*
D03*
Y64752D02*
D03*
Y62785D02*
D03*
Y60815D02*
D03*
Y58848D02*
D03*
Y56878D02*
D03*
Y54911D02*
D03*
Y52941D02*
D03*
D32*
X110843Y80501D02*
D03*
X108874Y80500D02*
D03*
X106906Y80501D02*
D03*
X104937Y80500D02*
D03*
X102969Y80501D02*
D03*
X101000Y80500D02*
D03*
X99032Y80501D02*
D03*
X97063Y80500D02*
D03*
X95095Y80501D02*
D03*
X93126Y80500D02*
D03*
X91158Y80501D02*
D03*
X89189Y80500D02*
D03*
X89188Y47036D02*
D03*
X91157Y47037D02*
D03*
X93125Y47036D02*
D03*
X95094Y47037D02*
D03*
X97062Y47036D02*
D03*
X99031Y47037D02*
D03*
X100999Y47036D02*
D03*
X102968Y47036D02*
D03*
X104936Y47036D02*
D03*
X106905Y47036D02*
D03*
X108873Y47036D02*
D03*
X110842Y47036D02*
D03*
D33*
X25545Y79118D02*
D03*
X10191D02*
D03*
X25545Y38882D02*
D03*
X10191D02*
D03*
D34*
X27809Y46402D02*
D03*
Y49354D02*
D03*
Y68646D02*
D03*
Y71599D02*
D03*
D35*
Y52110D02*
D03*
Y54077D02*
D03*
Y56047D02*
D03*
Y58017D02*
D03*
Y59987D02*
D03*
Y61957D02*
D03*
Y63917D02*
D03*
Y65887D02*
D03*
D36*
X63000Y9000D02*
D03*
X53000D02*
D03*
X43000D02*
D03*
X33000D02*
D03*
D63*
X140685Y5500D02*
D03*
D64*
X130843D02*
D03*
X121000D02*
D03*
X111158D02*
D03*
X166000Y35500D02*
D03*
Y25657D02*
D03*
Y15815D02*
D03*
Y92343D02*
D03*
Y82500D02*
D03*
Y72658D02*
D03*
D65*
Y45342D02*
D03*
Y102185D02*
D03*
D66*
X17748Y51125D02*
D03*
Y66873D02*
D03*
D67*
X23577Y47622D02*
D03*
Y70378D02*
D03*
M02*
