M48
;Layer_Color=9474304
;FILE_FORMAT=2:5
INCH,LZ
;TYPE=PLATED
T1F00S00C0.01000
T2F00S00C0.01500
T3F00S00C0.02000
;TYPE=NON_PLATED
T5F00S00C0.02165
T6F00S00C0.02559
%
T01
X0005Y001
X0015
X0025
Y002
Y003
X0015
Y002
X0005
Y003
X0035Y00535
X00395Y00515
X00495Y00415
X00635Y00455
Y005
Y00535
X0073647Y0050205
X0084Y0036
X0098
X0111
X011Y002
X012
X013
Y003
X014
X015
X016
Y002
X015
X014
X0142516Y0045083
X0146Y0048567
X015Y005
X0146Y0054587
X0133012Y0052172
X015Y004
X01Y0055
X0095
X01Y002
Y001
X009
Y002
X008
Y001
X006Y002
Y007
Y008
Y009
X0073532Y0092468
X00735Y0096
Y0099
Y0102
Y0105
X008Y011
X009
X01
X011
X00985Y00855
X0095Y00875
X00915
X00865
X0083
X00795
X00805Y00825
Y00785
X00855
Y00825
X0091943Y007503
X0096387Y0075068
X0106922Y0074377
X0106904Y0069134
X01Y006
X0095
X0123Y0058
X0128
X0146Y0060606
X015Y006
Y007
X0139
X016Y0075
Y0095
X015Y01
Y011
X016
X017
X01195Y00805
X0117Y0078
X006Y011
X005
Y009
X0035Y0085
Y01
X0025Y011
X0015
Y01
Y009
X0005
Y01
Y011
Y006
X0032147Y0059004
X0035Y0061957
T02
X00395Y00365
X00735Y00145
X01Y01045
X01145
X0139
X0145Y00905
T03
X00535Y0047
Y0072
T05
X0017748Y0051125
X0135153Y0113551
X0141847
X0017748Y0066873
T06
X0023577Y0047622
Y0070378
M30
